<svg width="28" height="28" viewBox="0 0 28 28" fill="none" xmlns="http://www.w3.org/2000/svg">
<mask id="path-1-inside-1" fill="white">
<path d="M20.6385 1.66923C18.7359 0.556411 16.5282 0 14.0154 0C11.5026 0 9.27693 0.556411 7.33847 1.66923C5.43591 2.78205 3.92822 4.39744 2.8154 6.51538C1.73847 8.59743 1.20001 11.0923 1.20001 14C1.20001 16.9077 1.73847 19.4205 2.8154 21.5385C3.92822 23.6205 5.43591 25.2179 7.33847 26.3308C9.27693 27.4436 11.5026 28 14.0154 28C16.5282 28 18.7359 27.4436 20.6385 26.3308C22.5769 25.2179 24.0846 23.6205 25.1615 21.5385C26.2744 19.4205 26.8308 16.9077 26.8308 14C26.8308 11.0923 26.2744 8.59743 25.1615 6.51538C24.0846 4.39744 22.5769 2.78205 20.6385 1.66923Z"/>
</mask>
<path d="M20.6385 1.66923L19.6287 3.39561L19.6357 3.3997L19.6427 3.40374L20.6385 1.66923ZM25.1615 6.51538L23.3788 7.42188L23.388 7.44011L23.3977 7.45814L25.1615 6.51538ZM25.1615 21.5385L23.391 20.6082L23.3851 20.6196L25.1615 21.5385ZM20.6385 26.3308L19.6427 24.5963L19.6357 24.6003L19.6287 24.6044L20.6385 26.3308ZM7.33847 26.3308L6.32871 28.0571L6.33571 28.0612L6.34274 28.0653L7.33847 26.3308ZM2.8154 21.5385L1.03263 22.445L1.04189 22.4632L1.05153 22.4812L2.8154 21.5385ZM2.8154 6.51538L1.04487 5.58511L1.03896 5.59654L2.8154 6.51538ZM7.33847 1.66923L6.34274 -0.0652744L6.33571 -0.0612374L6.32871 -0.0571435L7.33847 1.66923ZM14.0154 2C16.2239 2 18.0734 2.4859 19.6287 3.39561L21.6482 -0.0571433C19.3984 -1.37307 16.8325 -2 14.0154 -2V2ZM19.6427 3.40374C21.2223 4.31053 22.4665 5.62766 23.3788 7.42188L26.9443 5.60889C25.7028 3.16721 23.9316 1.25358 21.6342 -0.0652744L19.6427 3.40374ZM23.3977 7.45814C24.3235 9.19039 24.8308 11.346 24.8308 14H28.8308C28.8308 10.8386 28.2252 8.00448 26.9254 5.57263L23.3977 7.45814ZM24.8308 14C24.8308 16.6526 24.324 18.8326 23.3911 20.6082L26.932 22.4687C28.2247 20.0084 28.8308 17.1627 28.8308 14H24.8308ZM23.3851 20.6196C22.4756 22.3779 21.2314 23.6843 19.6427 24.5963L21.6342 28.0653C23.9225 26.7516 25.6936 24.8631 26.938 22.4573L23.3851 20.6196ZM19.6287 24.6044C18.0734 25.5141 16.2239 26 14.0154 26V30C16.8325 30 19.3984 29.3731 21.6482 28.0571L19.6287 24.6044ZM14.0154 26C11.8077 26 9.93343 25.5143 8.33421 24.5963L6.34274 28.0653C8.62044 29.3728 11.1975 30 14.0154 30V26ZM8.34824 24.6044C6.78739 23.6914 5.5308 22.376 4.57926 20.5957L1.05153 22.4812C2.32563 24.865 4.08443 26.7445 6.32871 28.0571L8.34824 24.6044ZM4.59817 20.632C3.6925 18.8508 3.20001 16.6621 3.20001 14H-0.799988C-0.799988 17.1533 -0.215549 19.9902 1.03263 22.445L4.59817 20.632ZM3.20001 14C3.20001 11.3366 3.69296 9.17206 4.59183 7.43423L1.03896 5.59654C-0.216009 8.02281 -0.799988 10.848 -0.799988 14H3.20001ZM4.58588 7.44564C5.54007 5.62961 6.79627 4.30336 8.34824 3.39561L6.32871 -0.0571435C4.07555 1.26074 2.31637 3.16526 1.04491 5.58513L4.58588 7.44564ZM8.33421 3.40374C9.93342 2.48567 11.8077 2 14.0154 2V-2C11.1975 -2 8.62044 -1.37285 6.34274 -0.0652744L8.33421 3.40374Z" fill="#AAAAAA" mask="url(#path-1-inside-1)"/>
<path d="M2.48901 11.7563C11.1214 16.2706 16.1547 16.35 25.4858 11.7563" stroke="#AAAAAA" stroke-width="2"/>
</svg>
