<svg width="14" height="14" viewBox="0 0 14 14" fill="none" xmlns="http://www.w3.org/2000/svg">
<path fill-rule="evenodd" clip-rule="evenodd" d="M9.81435 1.6978L9.81434 1.69783L9.82137 1.70187C10.6112 2.15526 11.2332 2.81383 11.6894 3.71094L11.694 3.72005L11.6988 3.72907C11.9785 4.25222 12.1817 4.85261 12.2988 5.53849C10.1051 6.59829 8.44957 7.09042 6.86411 7.08594C5.28865 7.08148 3.72368 6.58641 1.70952 5.55584C1.82249 4.85913 2.02076 4.2499 2.29445 3.71995C2.77064 2.81477 3.39707 2.1532 4.17062 1.69985C4.96946 1.24212 5.90547 1 7.0077 1C8.11195 1 9.0367 1.24295 9.81435 1.6978ZM1.60678 6.62347C1.60228 6.7467 1.60001 6.8722 1.60001 7C1.60001 8.32652 1.84458 9.41798 2.29448 10.3069C2.76896 11.1911 3.39446 11.8453 4.17062 12.3001C4.96946 12.7579 5.90547 13 7.0077 13C8.11195 13 9.0367 12.7571 9.81435 12.3022L9.82135 12.2981L9.82137 12.2981C10.6157 11.8421 11.2378 11.189 11.6926 10.3098L11.6955 10.3041L11.6955 10.3041C12.162 9.41631 12.4154 8.32632 12.4154 7C12.4154 6.86214 12.4127 6.72698 12.4072 6.59446C10.3039 7.58098 8.57729 8.09079 6.86128 8.08593C5.16504 8.08113 3.53149 7.57367 1.60678 6.62347ZM1.4077 10.7692C1.96411 11.8103 2.71795 12.609 3.66924 13.1654C4.63847 13.7218 5.75129 14 7.0077 14C8.26411 14 9.36795 13.7218 10.3192 13.1654C11.2885 12.609 12.0423 11.8103 12.5808 10.7692C13.1372 9.71026 13.4154 8.45385 13.4154 7C13.4154 5.54615 13.1372 4.29872 12.5808 3.25769C12.0423 2.19872 11.2885 1.39103 10.3192 0.834616C9.36795 0.278205 8.26411 0 7.0077 0C5.75129 0 4.63847 0.278205 3.66924 0.834616C2.71795 1.39103 1.96411 2.19872 1.4077 3.25769C0.869237 4.29872 0.600006 5.54615 0.600006 7C0.600006 8.45385 0.869237 9.71026 1.4077 10.7692Z" fill="#8D8D8F"/>
</svg>
