<svg width="28" height="28" viewBox="0 0 28 28" fill="none" xmlns="http://www.w3.org/2000/svg">
<path fill-rule="evenodd" clip-rule="evenodd" d="M20.6385 1.66923C18.7359 0.55641 16.5282 0 14.0154 0C11.5026 0 9.27693 0.55641 7.33847 1.66923C5.43591 2.78205 3.92822 4.39744 2.8154 6.51538C1.73847 8.59744 1.20001 11.0923 1.20001 14C1.20001 16.9077 1.73847 19.4205 2.8154 21.5385C3.92822 23.6205 5.43591 25.2179 7.33847 26.3308C9.27693 27.4436 11.5026 28 14.0154 28C16.5282 28 18.7359 27.4436 20.6385 26.3308C22.5769 25.2179 24.0846 23.6205 25.1615 21.5385C26.2744 19.4205 26.8308 16.9077 26.8308 14C26.8308 11.0923 26.2744 8.59744 25.1615 6.51538C24.0846 4.39744 22.5769 2.78205 20.6385 1.66923ZM3.94837 12.4933C3.911 12.9798 3.89232 13.482 3.89232 14C3.89232 17.6256 4.8077 20.4795 6.63847 22.5615C8.50514 24.6436 10.9641 25.6846 14.0154 25.6846C17.0667 25.6846 19.5077 24.6436 21.3385 22.5615C23.2051 20.4795 24.1385 17.6256 24.1385 14C24.1385 13.4593 24.1177 12.9359 24.0762 12.4295C16.1402 16.0929 11.2915 16.0581 3.94837 12.4933Z" fill="#AAAAAA"/>
</svg>
