<svg width="14" height="14" viewBox="0 0 14 14" fill="none" xmlns="http://www.w3.org/2000/svg">
<g clip-path="url(#clip0_1236_443)">
<path fill-rule="evenodd" clip-rule="evenodd" d="M4 0H4.5H9.5H10V0.5V1.68C10.2883 1.62971 10.5877 1.57297 10.9013 1.50983L11.3921 1.41104L11.4903 1.90194L11.9903 4.40194L12.0652 4.77642L11.7236 4.94721L10.9629 5.32754L9.99614 13.062L9.95775 13.3691L9.66573 13.4717C8.67154 13.821 7.85318 14.013 7.01187 14.0145C6.17038 14.016 5.34437 13.8268 4.33421 13.4717L4.04225 13.3691L4.00386 13.062L3.03705 5.32754L2.27639 4.94721L1.93481 4.77642L2.00971 4.40194L2.50971 1.90194L2.60785 1.41124L3.09847 1.50979C5.48622 1.98942 7.04227 2.08864 9 1.83371V1H4.5H4V0ZM4.08235 5.62765L4.95734 12.6275C5.76945 12.8944 6.39893 13.0156 7.01013 13.0145C7.62044 13.0134 8.24325 12.8905 9.04266 12.6276L9.91809 5.62413C7.75062 6.02578 6.25635 6.03832 4.08235 5.62765ZM10.3349 4.52353L10.9348 4.22358L10.6073 2.58599C7.92482 3.09103 6.16466 3.10539 3.39276 2.5857L3.06519 4.22358L3.6665 4.52423C6.2638 5.07422 7.73413 5.05789 10.3349 4.52353Z" fill="#8D8D8F"/>
</g>
<defs>
<clipPath id="clip0_1236_443">
<rect width="14" height="14" fill="white"/>
</clipPath>
</defs>
</svg>
