<svg width="28" height="28" viewBox="0 0 28 28" fill="none" xmlns="http://www.w3.org/2000/svg">
<mask id="path-1-inside-1" fill="white">
<path fill-rule="evenodd" clip-rule="evenodd" d="M6 1L27 6L22 27L1 22L6 1ZM13.0769 12.5L15.5 13.0769L14.9231 15.5L12.5 14.9231L13.0769 12.5Z"/>
</mask>
<path d="M27 6L28.9456 6.46324L29.4089 4.51763L27.4632 4.05439L27 6ZM6 1L6.46324 -0.945612L4.51763 -1.40885L4.05439 0.536759L6 1ZM22 27L21.5368 28.9456L23.4824 29.4089L23.9456 27.4632L22 27ZM1 22L-0.945612 21.5368L-1.40885 23.4824L0.536759 23.9456L1 22ZM15.5 13.0769L17.4456 13.5402L17.9089 11.5946L15.9632 11.1313L15.5 13.0769ZM13.0769 12.5L13.5402 10.5544L11.5946 10.0911L11.1313 12.0368L13.0769 12.5ZM14.9231 15.5L14.4598 17.4456L16.4054 17.9089L16.8687 15.9632L14.9231 15.5ZM12.5 14.9231L10.5544 14.4598L10.0911 16.4054L12.0368 16.8687L12.5 14.9231ZM27.4632 4.05439L6.46324 -0.945612L5.53676 2.94561L26.5368 7.94561L27.4632 4.05439ZM23.9456 27.4632L28.9456 6.46324L25.0544 5.53676L20.0544 26.5368L23.9456 27.4632ZM0.536759 23.9456L21.5368 28.9456L22.4632 25.0544L1.46324 20.0544L0.536759 23.9456ZM4.05439 0.536759L-0.945612 21.5368L2.94561 22.4632L7.94561 1.46324L4.05439 0.536759ZM15.9632 11.1313L13.5402 10.5544L12.6137 14.4456L15.0368 15.0225L15.9632 11.1313ZM16.8687 15.9632L17.4456 13.5402L13.5544 12.6137L12.9775 15.0368L16.8687 15.9632ZM12.0368 16.8687L14.4598 17.4456L15.3863 13.5544L12.9632 12.9775L12.0368 16.8687ZM11.1313 12.0368L10.5544 14.4598L14.4456 15.3863L15.0225 12.9632L11.1313 12.0368Z" fill="#AAAAAA" mask="url(#path-1-inside-1)"/>
</svg>
