<svg width="28" height="28" viewBox="0 0 28 28" fill="none" xmlns="http://www.w3.org/2000/svg">
<g clip-path="url(#clip0)">
<path fill-rule="evenodd" clip-rule="evenodd" d="M6 28L16 28C18.2091 28 20 26.2091 20 24V22H22C24.2091 22 26 20.2091 26 18L26 4C26 1.79412 24.2144 0.00528981 22.0098 1.25806e-05H28V28H0V1.25806e-05H11.9899C9.78538 0.00548294 8 1.79424 8 4L8 6H6C3.79086 6 2 7.79086 2 10L2 24C2 26.2091 3.79086 28 6 28ZM11.9899 1.25806e-05C11.9932 4.19487e-06 11.9966 -2.9557e-10 12 0L22 8.74228e-07C22.0033 8.74513e-07 22.0065 4.77811e-06 22.0098 1.25806e-05H11.9899ZM12 22H18V24C18 25.1046 17.1046 26 16 26L6 26C4.89543 26 4 25.1046 4 24L4 10C4 8.89543 4.89543 8 6 8H8L8 18C8 20.2091 9.79086 22 12 22ZM19 20H12C10.8954 20 10 19.1046 10 18L10 7L10 4C10 2.89543 10.8954 2 12 2L22 2C23.1046 2 24 2.89543 24 4L24 18C24 19.1046 23.1046 20 22 20H19Z" fill="black"/>
</g>
<defs>
<clipPath id="clip0">
<rect width="28" height="28" fill="white"/>
</clipPath>
</defs>
</svg>
