<svg width="28" height="28" viewBox="0 0 28 28" fill="none" xmlns="http://www.w3.org/2000/svg">
<mask id="path-1-inside-1" fill="white">
<path fill-rule="evenodd" clip-rule="evenodd" d="M6 1L27 6L24.9879 14.451L16.5 12.4615L12.4615 11.5L11.8632 14L3.37859 12.0099L6 1ZM3.01244 13.5477L1 22L22 27L24.6214 15.99L16.1368 14L15.5385 16.5L11.5 15.5384L3.01244 13.5477Z"/>
</mask>
<path d="M27 6L28.9456 6.46324L29.4089 4.51763L27.4632 4.05439L27 6ZM6 1L6.46324 -0.945612L4.51763 -1.40885L4.05439 0.536759L6 1ZM24.9879 14.451L24.5315 16.3982L26.4719 16.853L26.9335 14.9142L24.9879 14.451ZM16.5 12.4615L16.0368 14.4071L16.0436 14.4087L16.5 12.4615ZM12.4615 11.5L12.9248 9.55435L10.9814 9.09165L10.5165 11.0345L12.4615 11.5ZM11.8632 14L11.4065 15.9471L13.3449 16.4018L13.8083 14.4655L11.8632 14ZM3.37859 12.0099L1.43298 11.5467L0.968178 13.4988L2.92189 13.9571L3.37859 12.0099ZM3.01244 13.5477L3.46913 11.6006L1.52852 11.1454L1.06683 13.0845L3.01244 13.5477ZM1 22L-0.945612 21.5368L-1.40885 23.4824L0.536759 23.9456L1 22ZM22 27L21.5368 28.9456L23.4824 29.4089L23.9456 27.4632L22 27ZM24.6214 15.99L26.567 16.4533L27.0318 14.5011L25.0781 14.0429L24.6214 15.99ZM16.1368 14L16.5935 12.0528L14.6551 11.5982L14.1917 13.5345L16.1368 14ZM15.5385 16.5L15.0752 18.4456L17.0186 18.9083L17.4835 16.9655L15.5385 16.5ZM11.5 15.5384L11.9632 13.5928L11.9567 13.5913L11.5 15.5384ZM27.4632 4.05439L6.46324 -0.945612L5.53676 2.94561L26.5368 7.94561L27.4632 4.05439ZM26.9335 14.9142L28.9456 6.46324L25.0544 5.53676L23.0423 13.9877L26.9335 14.9142ZM25.4443 12.5037L16.9564 10.5143L16.0436 14.4087L24.5315 16.3982L25.4443 12.5037ZM16.9632 10.5159L12.9248 9.55435L11.9983 13.4456L16.0368 14.4071L16.9632 10.5159ZM10.5165 11.0345L9.91815 13.5345L13.8083 14.4655L14.4066 11.9655L10.5165 11.0345ZM12.3199 12.0528L3.83529 10.0628L2.92189 13.9571L11.4065 15.9471L12.3199 12.0528ZM4.05439 0.536759L1.43298 11.5467L5.3242 12.4732L7.94561 1.46324L4.05439 0.536759ZM1.06683 13.0845L-0.945612 21.5368L2.94561 22.4632L4.95806 14.011L1.06683 13.0845ZM0.536759 23.9456L21.5368 28.9456L22.4632 25.0544L1.46324 20.0544L0.536759 23.9456ZM23.9456 27.4632L26.567 16.4533L22.6758 15.5268L20.0544 26.5368L23.9456 27.4632ZM15.6801 15.9471L24.1647 17.9372L25.0781 14.0429L16.5935 12.0528L15.6801 15.9471ZM17.4835 16.9655L18.0819 14.4655L14.1917 13.5345L13.5934 16.0345L17.4835 16.9655ZM11.0368 17.484L15.0752 18.4456L16.0017 14.5543L11.9632 13.5928L11.0368 17.484ZM2.55575 15.4949L11.0433 17.4856L11.9567 13.5913L3.46913 11.6006L2.55575 15.4949Z" fill="#AAAAAA" mask="url(#path-1-inside-1)"/>
</svg>
