<svg width="14" height="14" viewBox="0 0 14 14" fill="none" xmlns="http://www.w3.org/2000/svg">
<path fill-rule="evenodd" clip-rule="evenodd" d="M2.76838 1.47284L3 0.500031L3.97281 0.731651L12.5272 2.76841L13.5 3.00003L13.2684 3.97284L11.2316 12.5272L11 13.5L10.0272 13.2684L1.47281 11.2317L0.5 11L0.731621 10.0272L2.76838 1.47284ZM1.70443 10.2588L10.2588 12.2956L11.2846 7.98717L8.01173 7.23156L7.76925 8.25L5.75002 7.76923L5.75758 7.73745L2.48467 6.98184L1.70443 10.2588ZM2.71629 6.00901L3.74119 1.70446L12.2956 3.74122L11.5163 7.01434L8.24336 6.25873L8.25002 6.23077L6.23078 5.75L5.98921 6.76462L2.71629 6.00901Z" fill="#8D8D8F"/>
</svg>
