<svg width="28" height="28" viewBox="0 0 28 28" fill="none" xmlns="http://www.w3.org/2000/svg">
<g clip-path="url(#clip0)">
<path d="M23.0101 6.06734C21.3529 5.30697 19.5759 4.74676 17.7179 4.42591C17.6841 4.41971 17.6503 4.43519 17.6328 4.46614C17.4043 4.87262 17.1511 5.40291 16.9739 5.81972C14.9754 5.52054 12.9873 5.52054 11.0298 5.81972C10.8525 5.39365 10.5902 4.87262 10.3606 4.46614C10.3432 4.43622 10.3094 4.42075 10.2756 4.42591C8.41857 4.74574 6.64152 5.30594 4.98335 6.06734C4.96899 6.07353 4.95669 6.08386 4.94852 6.09726C1.57784 11.133 0.654471 16.0449 1.10745 20.896C1.10949 20.9197 1.12282 20.9424 1.14126 20.9568C3.36514 22.59 5.51935 23.5815 7.63355 24.2387C7.66739 24.249 7.70324 24.2366 7.72477 24.2087C8.22489 23.5258 8.6707 22.8057 9.05293 22.0484C9.07549 22.004 9.05396 21.9514 9.00785 21.9339C8.30073 21.6656 7.6274 21.3386 6.97971 20.9672C6.92848 20.9373 6.92437 20.864 6.9715 20.8289C7.1078 20.7268 7.24414 20.6205 7.37428 20.5132C7.39783 20.4936 7.43064 20.4895 7.45833 20.5018C11.7134 22.4446 16.32 22.4446 20.5249 20.5018C20.5525 20.4884 20.5854 20.4926 20.6099 20.5122C20.7401 20.6195 20.8764 20.7268 21.0137 20.8289C21.0609 20.864 21.0578 20.9373 21.0066 20.9672C20.3589 21.3458 19.6855 21.6656 18.9774 21.9328C18.9313 21.9504 18.9108 22.004 18.9333 22.0484C19.3238 22.8046 19.7696 23.5247 20.2605 24.2077C20.281 24.2366 20.3179 24.249 20.3517 24.2387C22.4761 23.5815 24.6303 22.59 26.8542 20.9568C26.8737 20.9424 26.886 20.9207 26.8881 20.897C27.4302 15.2887 25.98 10.417 23.0439 6.09828C23.0367 6.08386 23.0245 6.07353 23.0101 6.06734ZM9.68836 17.9422C8.40729 17.9422 7.35173 16.7661 7.35173 15.3217C7.35173 13.8773 8.38682 12.7012 9.68836 12.7012C11.0001 12.7012 12.0455 13.8876 12.025 15.3217C12.025 16.7661 10.9899 17.9422 9.68836 17.9422ZM18.3276 17.9422C17.0466 17.9422 15.991 16.7661 15.991 15.3217C15.991 13.8773 17.0261 12.7012 18.3276 12.7012C19.6394 12.7012 20.6847 13.8876 20.6643 15.3217C20.6643 16.7661 19.6394 17.9422 18.3276 17.9422Z" stroke="#AAAAAA" stroke-width="1.85714"/>
</g>
<defs>
<clipPath id="clip0">
<rect width="28" height="21.6901" fill="white" transform="translate(0 3.5)"/>
</clipPath>
</defs>
</svg>
