<svg width="28" height="28" viewBox="0 0 28 28" fill="none" xmlns="http://www.w3.org/2000/svg">
<g clip-path="url(#clip0)">
<path d="M23.7032 5.4315C21.9186 4.61264 20.0048 4.00934 18.0039 3.6638C17.9674 3.65713 17.931 3.6738 17.9123 3.70713C17.6661 4.14488 17.3935 4.71596 17.2026 5.16483C15.0505 4.84263 12.9094 4.84263 10.8014 5.16483C10.6104 4.70599 10.3279 4.14488 10.0807 3.70713C10.0619 3.67491 10.0255 3.65825 9.98906 3.6638C7.98923 4.00823 6.07549 4.61154 4.28976 5.4315C4.2743 5.43817 4.26105 5.44929 4.25225 5.46372C0.62229 10.8868 -0.372109 16.1766 0.11571 21.4008C0.117917 21.4264 0.132265 21.4508 0.152131 21.4664C2.54708 23.2251 4.86699 24.2929 7.14383 25.0006C7.18027 25.0117 7.21887 24.9984 7.24206 24.9684C7.78065 24.2329 8.26075 23.4574 8.67239 22.6418C8.69668 22.5941 8.67349 22.5374 8.62384 22.5185C7.86232 22.2296 7.1372 21.8774 6.43968 21.4775C6.38451 21.4453 6.3801 21.3663 6.43085 21.3286C6.57763 21.2186 6.72446 21.1041 6.86461 20.9886C6.88997 20.9675 6.92531 20.963 6.95512 20.9764C11.5375 23.0685 16.4985 23.0685 21.0268 20.9764C21.0566 20.9619 21.0919 20.9664 21.1184 20.9875C21.2586 21.103 21.4054 21.2186 21.5533 21.3286C21.604 21.3663 21.6007 21.4453 21.5455 21.4775C20.848 21.8852 20.1229 22.2296 19.3603 22.5174C19.3106 22.5363 19.2885 22.5941 19.3128 22.6418C19.7333 23.4562 20.2134 24.2318 20.742 24.9673C20.7641 24.9984 20.8038 25.0117 20.8403 25.0006C23.1282 24.2929 25.4481 23.2251 27.843 21.4664C27.864 21.4508 27.8772 21.4275 27.8794 21.4019C28.4633 15.3622 26.9016 10.1157 23.7396 5.46483C23.7319 5.44929 23.7186 5.43817 23.7032 5.4315ZM9.35669 18.2198C7.97708 18.2198 6.84032 16.9532 6.84032 15.3977C6.84032 13.8422 7.95504 12.5756 9.35669 12.5756C10.7694 12.5756 11.8951 13.8534 11.873 15.3977C11.873 16.9532 10.7583 18.2198 9.35669 18.2198ZM18.6605 18.2198C17.281 18.2198 16.1442 16.9532 16.1442 15.3977C16.1442 13.8422 17.2589 12.5756 18.6605 12.5756C20.0732 12.5756 21.199 13.8534 21.1769 15.3977C21.1769 16.9532 20.0732 18.2198 18.6605 18.2198Z" fill="#AAAAAA"/>
</g>
<defs>
<clipPath id="clip0">
<rect width="28" height="21.6901" fill="white" transform="translate(0 3.5)"/>
</clipPath>
</defs>
</svg>
