<svg width="28" height="28" viewBox="0 0 28 28" fill="none" xmlns="http://www.w3.org/2000/svg">
<path fill-rule="evenodd" clip-rule="evenodd" d="M28 0H0V18.9633C4.69205e-05 14.5314 1.18568 10.0451 4.25225 5.4637C4.26105 5.44927 4.2743 5.43815 4.28976 5.43148C6.07549 4.61152 7.98923 4.00821 9.98906 3.66378C10.0255 3.65823 10.0619 3.67489 10.0807 3.70711C10.3279 4.14486 10.6104 4.70597 10.8014 5.16481C12.9094 4.84262 15.0505 4.84262 17.2026 5.16481C17.3935 4.71594 17.6661 4.14486 17.9123 3.70711C17.931 3.67378 17.9674 3.65711 18.0039 3.66378C20.0048 4.00932 21.9186 4.61262 23.7032 5.43148C23.7186 5.43815 23.7319 5.44927 23.7396 5.46481C26.4624 9.4698 27.9986 13.9164 28 18.9308V0ZM28 18.9444C27.9998 19.7488 27.9601 20.5678 27.8794 21.4019C27.8772 21.4275 27.864 21.4508 27.843 21.4663C25.4481 23.2251 23.1282 24.2929 20.8403 25.0006C20.8038 25.0117 20.7641 24.9984 20.742 24.9673C20.2134 24.2317 19.7333 23.4562 19.3128 22.6418C19.2885 22.5941 19.3106 22.5363 19.3603 22.5174C20.1229 22.2296 20.848 21.8852 21.5455 21.4775C21.6007 21.4452 21.604 21.3663 21.5533 21.3285C21.4054 21.2186 21.2586 21.103 21.1184 20.9875C21.0919 20.9664 21.0566 20.9619 21.0268 20.9763C16.4985 23.0685 11.5375 23.0685 6.95512 20.9763C6.92531 20.963 6.88997 20.9675 6.86461 20.9886C6.72446 21.1041 6.57763 21.2186 6.43085 21.3285C6.3801 21.3663 6.38451 21.4452 6.43968 21.4775C7.1372 21.8774 7.86232 22.2296 8.62384 22.5185C8.67349 22.5374 8.69668 22.5941 8.67239 22.6418C8.26075 23.4574 7.78065 24.2329 7.24206 24.9684C7.21887 24.9984 7.18026 25.0117 7.14383 25.0006C4.86699 24.2929 2.54708 23.2251 0.152131 21.4663C0.132265 21.4508 0.117917 21.4263 0.11571 21.4008C0.040015 20.5901 8.61821e-06 19.7779 0 18.9639V28H28V18.9444ZM6.84032 15.3977C6.84032 16.9532 7.97708 18.2198 9.35669 18.2198C10.7583 18.2198 11.873 16.9532 11.873 15.3977C11.8951 13.8533 10.7694 12.5756 9.35669 12.5756C7.95504 12.5756 6.84032 13.8422 6.84032 15.3977ZM16.1442 15.3977C16.1442 16.9532 17.281 18.2198 18.6605 18.2198C20.0732 18.2198 21.1769 16.9532 21.1769 15.3977C21.199 13.8533 20.0732 12.5756 18.6605 12.5756C17.2589 12.5756 16.1442 13.8422 16.1442 15.3977Z" fill="black"/>
</svg>
