<svg width="14" height="14" viewBox="0 0 14 14" fill="none" xmlns="http://www.w3.org/2000/svg">
<path fill-rule="evenodd" clip-rule="evenodd" d="M11.6968 2.61086C10.8337 2.21501 9.90812 1.9232 8.94024 1.75585C8.72933 1.71825 8.51748 1.81772 8.41186 2.00525L8.4117 2.00554C8.34338 2.12707 8.27218 2.26661 8.20636 2.40422C7.39762 2.31004 6.59171 2.30972 5.79413 2.40366C5.7256 2.26362 5.65225 2.1246 5.58457 2.00477L5.58461 2.00475L5.58147 1.99936C5.47393 1.81478 5.26737 1.72355 5.06778 1.75399L5.06777 1.7539L5.05897 1.75542C4.09072 1.92218 3.16435 2.21414 2.30007 2.61077C2.21701 2.64827 2.14085 2.7099 2.086 2.79402C0.339606 5.40479 -0.143958 7.9669 0.091294 10.4896L0.0914438 10.4912L0.553719 10.448L0.0911551 10.488L0.091294 10.4896C0.104794 10.6403 0.183462 10.7651 0.284593 10.8441L0.284461 10.8443L0.295812 10.8527C0.905327 11.3003 1.81313 11.6989 2.53455 11.9784C2.90182 12.1207 3.23309 12.2367 3.47262 12.3172C3.59251 12.3575 3.68973 12.389 3.75736 12.4105C3.79118 12.4213 3.81762 12.4296 3.83583 12.4352L3.85685 12.4417L3.86252 12.4435L3.86412 12.444L3.8646 12.4441L3.86476 12.4442C3.86482 12.4442 3.86487 12.4442 4 12L3.86487 12.4442L4.13134 12.5253L4.3283 12.3283L4 12C4.3283 12.3283 4.32842 12.3282 4.32855 12.3281L4.32882 12.3278L4.3294 12.3272L4.33068 12.3259L4.33379 12.3228L4.34209 12.3141C4.34854 12.3073 4.3568 12.2985 4.36675 12.2875C4.38666 12.2655 4.4133 12.2349 4.44569 12.1952C4.51048 12.1158 4.59818 11.9999 4.70089 11.8431C4.86574 11.5915 5.06875 11.235 5.27766 10.7554C6.42043 11.0048 7.58518 11.0053 8.72257 10.7567C8.93142 11.2357 9.13436 11.5918 9.29915 11.8433C9.40186 12.0001 9.48955 12.1159 9.55434 12.1953C9.58672 12.235 9.61336 12.2655 9.63326 12.2875C9.6432 12.2985 9.65146 12.3074 9.65791 12.3141L9.66621 12.3228L9.66931 12.3259L9.67059 12.3272L9.67117 12.3278L9.67144 12.3281C9.67157 12.3282 9.6717 12.3283 10 12L9.6717 12.3283L9.86871 12.5253L10.1352 12.4442L10 12C10.1352 12.4442 10.1353 12.4441 10.1354 12.4441L10.1355 12.4441L10.136 12.4439L10.1376 12.4434L10.1433 12.4417L10.1643 12.4352C10.1824 12.4295 10.2089 12.4213 10.2427 12.4105C10.3102 12.3889 10.4074 12.3574 10.5271 12.3172C10.7665 12.2367 11.0974 12.1206 11.4644 11.9783C12.1853 11.6988 13.0925 11.3002 13.7019 10.8527L13.7034 10.8515C13.816 10.7682 13.8922 10.6393 13.9062 10.4932C14.188 7.57792 13.4327 5.03869 11.9135 2.79938C11.8552 2.70639 11.7739 2.64573 11.6968 2.61086ZM3.76843 11.437L3.83823 11.4603C3.86445 11.4235 3.8932 11.3815 3.92411 11.3344C4.04713 11.1465 4.20475 10.8745 4.3731 10.5043C4.09174 10.4091 3.81256 10.2985 3.53633 10.1724L3.11398 9.97953L3.49964 9.13484L3.92199 9.32767C5.92778 10.2434 8.08954 10.2425 10.0677 9.32854L10.4892 9.13381L10.8786 9.97676L10.4572 10.1715C10.1834 10.298 9.90625 10.4089 9.62662 10.5043C9.79505 10.8746 9.95276 11.1466 10.0758 11.3344C10.1067 11.3815 10.1355 11.4234 10.1617 11.4603L10.2311 11.437C10.4606 11.3598 10.7779 11.2486 11.1287 11.1126C11.7746 10.8621 12.4953 10.5422 12.999 10.2106C13.2047 7.64511 12.5376 5.4088 11.2029 3.40664C10.532 3.10815 9.82124 2.878 9.08171 2.72728C9.02056 2.85147 8.96162 2.98003 8.91417 3.09159L8.77354 3.42224L8.41818 3.36904C7.46407 3.2262 6.51682 3.22642 5.58507 3.36883L5.22588 3.42373L5.08627 3.08826C5.04042 2.97809 4.98065 2.85101 4.91765 2.72662C4.17767 2.87697 3.4661 3.1073 2.79407 3.40649C1.27035 5.72719 0.826513 7.97963 0.99943 10.211C1.50311 10.5425 2.22394 10.8622 2.87003 11.1125C3.22111 11.2485 3.53869 11.3598 3.76843 11.437ZM4.84418 8.37052C4.20365 8.37052 3.67587 7.78246 3.67587 7.06027C3.67587 6.33807 4.19342 5.75001 4.84418 5.75001C5.50006 5.75001 6.02273 6.34324 6.01248 7.06027C6.01248 7.78246 5.49494 8.37052 4.84418 8.37052ZM9.16383 8.37052C8.52331 8.37052 7.99553 7.78246 7.99553 7.06027C7.99553 6.33807 8.51306 5.75001 9.16383 5.75001C9.81972 5.75001 10.3424 6.34324 10.3321 7.06027C10.3321 7.78246 9.81972 8.37052 9.16383 8.37052Z" fill="#8D8D8F"/>
</svg>
