<svg width="28" height="28" viewBox="0 0 28 28" fill="none" xmlns="http://www.w3.org/2000/svg">
<path d="M23.1439 13.691L23.1431 13.6906L3.96263 4.08997C3.96253 4.08991 3.96242 4.08986 3.96232 4.08981C3.504 3.86101 3.28783 3.95094 3.2343 3.98402C3.18079 4.01709 3.00371 4.1702 3.00342 4.68239C3.00342 4.68247 3.00342 4.68256 3.00342 4.68264C3.00342 4.68269 3.00342 4.68273 3.00342 4.68278V11.3246C3.00342 11.3247 3.00342 11.3248 3.00342 11.325C3.00372 11.8401 3.19704 12.4632 3.55805 13.0444C3.91907 13.6257 4.39322 14.0773 4.85622 14.3085L4.85703 14.3089L24.0375 23.9096C24.0376 23.9096 24.0377 23.9097 24.0378 23.9098C24.4961 24.1385 24.7123 24.0486 24.7658 24.0155C24.8193 23.9825 24.9964 23.8293 24.9967 23.3172L23.1439 13.691ZM23.1439 13.691C23.6069 13.9223 24.081 14.3738 24.4421 14.9551M23.1439 13.691L24.4421 14.9551M24.4421 14.9551C24.8031 15.5364 24.9964 16.1595 24.9967 16.6746M24.4421 14.9551L24.9967 16.6746M24.9967 16.6746C24.9967 16.6747 24.9967 16.6748 24.9967 16.675M24.9967 16.6746V16.675M24.9967 16.675V23.3168V16.675Z" stroke="#AAAAAA" stroke-width="2"/>
<path fill-rule="evenodd" clip-rule="evenodd" d="M23.5907 3.19533C24.9189 2.532 25.9961 3.19777 25.9967 4.68239V11.325C25.9964 12.2236 25.6015 13.2122 24.9954 13.9998C24.6001 13.4862 24.1149 13.0582 23.5907 12.7964L14.0001 7.99587L23.5907 3.19533ZM14 7.9959L4.40942 12.7964C3.08121 13.4597 2.004 15.19 2.00342 16.6746V23.3172C2.004 24.8018 3.08121 25.4675 4.40942 24.8042L14.0001 20.0037L14 20.0036V7.9959Z" fill="#AAAAAA"/>
</svg>
