<svg width="28" height="28" viewBox="0 0 28 28" fill="none" xmlns="http://www.w3.org/2000/svg">
<path fill-rule="evenodd" clip-rule="evenodd" d="M28 0H0V28H28V0ZM25.9967 11.325C25.9964 12.2236 25.6015 13.2122 24.9954 13.9998C25.6015 14.7873 25.9964 15.7759 25.9967 16.6746V23.3172C25.9961 24.8018 24.9189 25.4675 23.5907 24.8042L14.0001 20.0037L4.40942 24.8042C3.08121 25.4675 2.004 24.8018 2.00342 23.3172V16.6746C2.00377 15.7759 2.39859 14.7873 3.00476 13.9998C2.39859 13.2122 2.00377 12.2236 2.00342 11.325V4.68239C2.004 3.19777 3.08121 2.532 4.40942 3.19533L14.0001 7.99587L23.5907 3.19533C24.9189 2.532 25.9961 3.19777 25.9967 4.68239V11.325ZM14 10.2324V17.7671L23.9967 22.7709V16.6754C23.9966 16.3873 23.8794 15.9445 23.5926 15.4827C23.3059 15.0212 22.959 14.7165 22.6971 14.5857L22.6955 14.5849L14 10.2324ZM4.54927 12.7264L11.7659 9.11414L4.00342 5.22866V11.3242V11.3244V11.325C4.00374 11.6131 4.12099 12.0555 4.40755 12.5168C4.45344 12.5907 4.50088 12.6606 4.54927 12.7264Z" fill="black"/>
</svg>
