<svg width="28" height="28" viewBox="0 0 28 28" fill="none" xmlns="http://www.w3.org/2000/svg">
<mask id="path-1-inside-1" fill="white">
<path fill-rule="evenodd" clip-rule="evenodd" d="M4.40942 3.19533C3.08121 2.532 2.004 3.19777 2.00342 4.68239V11.325C2.00377 12.2236 2.39859 13.2122 3.00476 13.9998C2.39859 14.7873 2.00377 15.7759 2.00342 16.6746V23.3172C2.004 24.8018 3.08121 25.4675 4.40942 24.8042L14.0001 20.0037L23.5907 24.8042C24.9189 25.4675 25.9961 24.8018 25.9967 23.3172V16.6746C25.9964 15.7759 25.6015 14.7873 24.9954 13.9998C25.6015 13.2122 25.9964 12.2236 25.9967 11.325V4.68239C25.9961 3.19777 24.9189 2.532 23.5907 3.19533L14.0001 7.99587L4.40942 3.19533Z"/>
</mask>
<path d="M2.00342 4.68239L0.00341797 4.68161V4.68239H2.00342ZM4.40942 3.19533L5.30463 1.40686L5.30301 1.40606L4.40942 3.19533ZM2.00342 11.325L0.00341782 11.325L0.00341812 11.3257L2.00342 11.325ZM3.00476 13.9998L4.58964 15.2197L5.52862 13.9998L4.58964 12.7799L3.00476 13.9998ZM2.00342 16.6746L0.00341797 16.6738V16.6746H2.00342ZM2.00342 23.3172L0.00341782 23.3172L0.00341812 23.3179L2.00342 23.3172ZM4.40942 24.8042L5.30301 26.5935L5.30463 26.5927L4.40942 24.8042ZM14.0001 20.0037L14.8953 18.2152L14.0001 17.7671L13.1049 18.2152L14.0001 20.0037ZM23.5907 24.8042L22.6955 26.5927L22.6971 26.5935L23.5907 24.8042ZM25.9967 23.3172L27.9967 23.3179V23.3172H25.9967ZM25.9967 16.6746L27.9967 16.6746L27.9967 16.6738L25.9967 16.6746ZM24.9954 13.9998L23.4105 12.7799L22.4715 13.9998L23.4105 15.2197L24.9954 13.9998ZM25.9967 11.325L27.9967 11.3257V11.325H25.9967ZM25.9967 4.68239L27.9967 4.68239L27.9967 4.68161L25.9967 4.68239ZM23.5907 3.19533L22.6971 1.40605L22.6955 1.40686L23.5907 3.19533ZM14.0001 7.99587L13.1049 9.78433L14.0001 10.2324L14.8953 9.78433L14.0001 7.99587ZM4.00342 4.68317C4.00347 4.54884 4.02821 4.52691 4.00491 4.5768C3.97775 4.63494 3.90427 4.74552 3.76005 4.83466C3.61583 4.9238 3.48408 4.94006 3.41996 4.93836C3.36494 4.93689 3.39564 4.92457 3.51584 4.9846L5.30301 1.40606C4.22776 0.869058 2.8562 0.690957 1.65706 1.4321C0.457905 2.17325 0.00388754 3.47969 0.00341812 4.68161L4.00342 4.68317ZM4.00342 11.325V4.68239H0.00341797V11.325H4.00342ZM4.58964 12.7799C4.18751 12.2574 4.00356 11.686 4.00342 11.3242L0.00341812 11.3257C0.00397876 12.7612 0.609657 14.167 1.41989 15.2197L4.58964 12.7799ZM1.41989 12.7799C0.609658 13.8325 0.00397876 15.2383 0.00341812 16.6738L4.00342 16.6754C4.00356 16.3136 4.18751 15.7421 4.58964 15.2197L1.41989 12.7799ZM0.00341797 16.6746V23.3172H4.00342V16.6746H0.00341797ZM0.00341812 23.3179C0.00388754 24.5199 0.457905 25.8263 1.65706 26.5674C2.8562 27.3086 4.22776 27.1305 5.30301 26.5935L3.51584 23.0149C3.39564 23.075 3.36494 23.0627 3.41996 23.0612C3.48408 23.0595 3.61583 23.0757 3.76005 23.1649C3.90427 23.254 3.97775 23.3646 4.00491 23.4227C4.02821 23.4726 4.00347 23.4507 4.00342 23.3164L0.00341812 23.3179ZM5.30463 26.5927L14.8953 21.7921L13.1049 18.2152L3.51422 23.0157L5.30463 26.5927ZM24.4859 23.0157L14.8953 18.2152L13.1049 21.7921L22.6955 26.5927L24.4859 23.0157ZM23.9967 23.3164C23.9967 23.4507 23.9719 23.4726 23.9952 23.4227C24.0224 23.3646 24.0959 23.254 24.2401 23.1649C24.3843 23.0757 24.516 23.0595 24.5802 23.0612C24.6352 23.0627 24.6045 23.075 24.4843 23.0149L22.6971 26.5935C23.7724 27.1305 25.1439 27.3086 26.3431 26.5674C27.5422 25.8263 27.9962 24.5199 27.9967 23.3179L23.9967 23.3164ZM23.9967 16.6746V23.3172H27.9967V16.6746H23.9967ZM23.4105 15.2197C23.8126 15.7421 23.9966 16.3136 23.9967 16.6754L27.9967 16.6738C27.9961 15.2383 27.3905 13.8325 26.5802 12.7799L23.4105 15.2197ZM26.5802 15.2197C27.3905 14.167 27.9961 12.7612 27.9967 11.3257L23.9967 11.3242C23.9966 11.686 23.8126 12.2574 23.4105 12.7799L26.5802 15.2197ZM27.9967 11.325V4.68239H23.9967V11.325H27.9967ZM27.9967 4.68161C27.9962 3.47969 27.5422 2.17325 26.3431 1.4321C25.1439 0.690957 23.7724 0.869058 22.6971 1.40606L24.4843 4.9846C24.6045 4.92457 24.6352 4.93689 24.5802 4.93836C24.516 4.94006 24.3843 4.9238 24.2401 4.83466C24.0959 4.74552 24.0224 4.63494 23.9952 4.5768C23.9719 4.52691 23.9967 4.54884 23.9967 4.68317L27.9967 4.68161ZM22.6955 1.40686L13.1049 6.2074L14.8953 9.78433L24.4859 4.98379L22.6955 1.40686ZM3.51422 4.98379L13.1049 9.78433L14.8953 6.2074L5.30463 1.40686L3.51422 4.98379Z" fill="#AAAAAA" mask="url(#path-1-inside-1)"/>
<path d="M14 9.13989L3.5 14.5M14 9.13989L24.5 14.5M14 9.13989V19" stroke="#AAAAAA" stroke-width="2"/>
</svg>
