<svg width="14" height="14" viewBox="0 0 14 14" fill="none" xmlns="http://www.w3.org/2000/svg">
<path fill-rule="evenodd" clip-rule="evenodd" d="M12.9984 5.66248C12.9982 6.1118 12.8008 6.60612 12.4977 6.99989C12.8008 7.39365 12.9982 7.88797 12.9984 8.33729V11.6586C12.9981 12.4009 12.4595 12.7338 11.7953 12.4021L7.00003 10.0018L2.20471 12.4021C1.5406 12.7338 1.002 12.4009 1.00171 11.6586V8.33729C1.00188 7.88797 1.19929 7.39365 1.50238 6.99989C1.19929 6.60612 1.00188 6.1118 1.00171 5.66248V2.34119C1.002 1.59888 1.5406 1.266 2.20471 1.59766L7.00003 3.99793L11.7953 1.59766C12.4595 1.266 12.9981 1.59888 12.9984 2.34119V5.66248ZM11.7052 7.60984C11.9063 7.87106 11.9983 8.15678 11.9984 8.33768V11.3854L7.5 9.13382V5.38663L11.6083 7.48384L11.7052 7.60984ZM11.6938 6.40476L8.09552 4.56787L11.9984 2.61433V5.66209C11.9983 5.843 11.9063 6.12872 11.7052 6.38993L11.6938 6.40476ZM5.90451 4.56786L2.30622 6.40474L2.29482 6.38993C2.0939 6.1289 2.00191 5.84341 2.00171 5.66248L2.00171 5.66209L2.00171 2.61433L5.90451 4.56786ZM2.39184 7.48379L6.5 5.38663V9.13385L2.00171 11.3854L2.00171 8.33768L2.00171 8.33756V8.33729C2.00191 8.15637 2.0939 7.87087 2.29482 7.60984L2.39184 7.48379Z" fill="#8D8D8F"/>
</svg>
