<svg width="14" height="14" viewBox="0 0 14 14" fill="none" xmlns="http://www.w3.org/2000/svg">
<path fill-rule="evenodd" clip-rule="evenodd" d="M8 12.917C7.67479 12.9716 7.34071 13 7 13C6.65929 13 6.32521 12.9716 6 12.917V10.01C6 9.45216 5.54782 9 4.99005 9C4.44326 9 4 8.55674 4 8.00995V6C4 5.44772 4.44772 5 5 5H6H8H9C9.55228 5 10 5.44772 10 6V8.00995C10 8.55674 9.55674 9 9.00995 9C8.45217 9 8 9.45217 8 10.01V12.917ZM10.348 4.52248C10.7486 4.88823 11 5.41476 11 6V8.00995C11 9.10902 10.109 10 9.00995 10C9.00446 10 9 10.0045 9 10.01V12.6586C11.3304 11.8349 13 9.61244 13 7C13 3.68629 10.3137 1 7 1C3.68629 1 1 3.68629 1 7C1 9.61244 2.66962 11.8349 5 12.6586V10.01C5 10.0045 4.99555 10 4.99005 10C3.89098 10 3 9.10902 3 8.00995V6C3 5.40466 3.26012 4.87008 3.6729 4.5037C3.38092 3.9934 3.33041 3.59641 3.5 3C4.3995 3.15364 4.87195 3.30346 5.5 4H6H8H8.5C9.14198 3.41249 9.59584 3.21579 10.5 3C10.6308 3.71916 10.5764 4.12686 10.348 4.52248ZM9 13.7101C11.8915 12.8496 14 10.171 14 7C14 3.13401 10.866 0 7 0C3.13401 0 0 3.13401 0 7C0 10.171 2.10851 12.8496 5 13.7101C5.30322 13.8004 5.61505 13.8706 5.93397 13.9193C5.95595 13.9227 5.97796 13.926 6 13.9291C6.3266 13.9758 6.66048 14 7 14C7.33952 14 7.6734 13.9758 8 13.9291C8.34163 13.8802 8.67532 13.8067 8.99917 13.7104L9 13.7101Z" fill="#8D8D8F"/>
<path d="M2.7764 10.5528L2.32918 10.7764L2.77639 11.6708L3.2236 11.4472L2.7764 10.5528ZM3.2236 11.4472C3.52697 11.2955 3.72394 11.3517 4.09189 11.4744C4.47394 11.6017 5.02697 11.7955 5.7236 11.4472L5.2764 10.5528C4.97303 10.7045 4.77606 10.6483 4.40811 10.5257C4.02606 10.3983 3.47303 10.2045 2.7764 10.5528L3.2236 11.4472Z" fill="#8D8D8F"/>
</svg>
