<svg width="14" height="14" viewBox="0 0 14 14" fill="none" xmlns="http://www.w3.org/2000/svg">
<path fill-rule="evenodd" clip-rule="evenodd" d="M2.49999 1H2.19097L2.05278 1.27639L0.776383 3.82918C0.408932 4.56408 0.706013 5.39461 1.33392 5.78082L1.14564 6.72227C1.04878 7.20656 0.999991 7.69925 0.999991 8.19314V11.5C0.999991 12.3284 1.67156 13 2.49999 13H11.5C12.3284 13 13 12.3284 13 11.5V8.19314C13 7.69925 12.9512 7.20656 12.8543 6.72227L12.6661 5.78082C13.294 5.39461 13.591 4.56408 13.2236 3.82918L11.9472 1.27639L11.809 1H11.5H2.49999ZM2.12622 6.91838L2.30989 6H11.6901L11.8738 6.91838C11.9577 7.33811 12 7.7651 12 8.19314V11.5C12 11.7761 11.7761 12 11.5 12H2.49999C2.22385 12 1.99999 11.7761 1.99999 11.5V8.19314C1.99999 7.7651 2.04227 7.33811 2.12622 6.91838ZM1.67081 4.27639L2.80901 2H11.191L12.3292 4.27639C12.4954 4.60884 12.2536 5 11.882 5H2.11802C1.74633 5 1.50459 4.60884 1.67081 4.27639ZM8.7071 9.29289L8.4142 9H7.99999H5.99999H5.58578L5.29288 9.29289L4.58578 10H4.28077L4.78077 8L5.49999 8H7.74999L9.21921 8L9.71921 10L9.4142 10L8.7071 9.29289ZM7.99999 10L8.7071 10.7071C8.89463 10.8946 9.14899 11 9.4142 11H9.71921C10.3698 11 10.8471 10.3886 10.6894 9.75747L10.1894 7.75746C10.0781 7.3123 9.67808 7 9.21921 7H7.74999H5.49999H4.78077C4.3219 7 3.92192 7.3123 3.81062 7.75746L3.31062 9.75746C3.15284 10.3886 3.6302 11 4.28077 11H4.58578C4.85099 11 5.10535 10.8946 5.29288 10.7071L5.99999 10H7.99999Z" fill="#8D8D8F"/>
</svg>
