<svg width="14" height="14" viewBox="0 0 14 14" fill="none" xmlns="http://www.w3.org/2000/svg">
<path fill-rule="evenodd" clip-rule="evenodd" d="M1 3H0V4V9C0 10.6569 1.34315 12 3 12H7C7.88934 12 8.68746 11.6127 9.23594 11H11.5C12.8807 11 14 9.88071 14 8.5V5.5V5V4H13H12.5H10V3H9H1ZM9 10H8.73244C8.38663 10.5978 7.74028 11 7 11H3C1.89543 11 1 10.1046 1 9V5V4H2H8H9V5H10H12H12.5H13V5.5V6V8.5C13 9.32843 12.3284 10 11.5 10H9ZM12 8.5C12 8.77614 11.7761 9 11.5 9H10H9V8V7V6H10H11H12V7V8.5ZM11 8H10V7H11V8ZM3 8C2.44772 7.44772 2.44772 6.55228 3 6C3.55228 5.44772 4.44772 5.44772 5 6C5.55228 5.44772 6.44772 5.44772 7 6C7.55228 6.55228 7.55228 7.44772 7 8L6.41421 8.58579L5 10L3.58579 8.58579L3 8Z" fill="#8D8D8F"/>
</svg>
