<svg width="14" height="14" viewBox="0 0 14 14" fill="none" xmlns="http://www.w3.org/2000/svg">
<path fill-rule="evenodd" clip-rule="evenodd" d="M12.9999 7C12.9998 11.3748 8.1608 11.3642 6.00983 11.1434C5.39516 11.0803 5.00001 11 5.00001 11C5.00001 11.1795 5.00002 11.6456 5.43901 12.0827C5.91692 12.5585 6.91511 13 9.00002 13V14C8.65174 14 8.31863 13.9943 8.00002 13.983C0.999995 13.7341 0.999939 10.7606 0.999939 5.5C0.999939 1.375 3.24994 1 6.99994 1C12.2499 1 13 2.5 12.9999 7ZM5.19908 10.02L5.19852 10.0199L5.19815 10.0198L5.19793 10.0198L4.00001 9.77645V11C4.00001 11.2116 4.00394 11.794 4.40627 12.3957C3.6126 12.0904 3.13276 11.6898 2.82087 11.2414C2.45381 10.7138 2.23383 10.008 2.118 9.03074C2.00138 8.04682 1.99994 6.89269 1.99994 5.5C1.99994 3.6143 2.50208 2.9188 3.10242 2.56405C3.86038 2.11616 5.07647 2 6.99994 2C9.62334 2 10.7012 2.39899 11.2254 2.98147C11.4869 3.27205 11.6886 3.69222 11.8196 4.35731C11.9524 5.03184 11.9999 5.88977 11.9999 6.99998C11.9999 8.13673 11.6111 8.80277 11.1016 9.2367C10.5514 9.70516 9.76005 9.98558 8.8531 10.1202C7.9576 10.2531 7.04188 10.2304 6.33561 10.1697C5.98594 10.1396 5.69556 10.101 5.4949 10.0703C5.39474 10.055 5.31739 10.0417 5.26671 10.0326C5.24139 10.0281 5.22276 10.0246 5.21132 10.0224L5.19962 10.0201L5.19908 10.02ZM5 6C5.55228 6 6 5.55228 6 5C6 4.44772 5.55228 4 5 4C4.44772 4 4 4.44772 4 5C4 5.55228 4.44772 6 5 6Z" fill="#8D8D8F"/>
</svg>
