<svg width="28" height="28" viewBox="0 0 28 28" fill="none" xmlns="http://www.w3.org/2000/svg">
<g clip-path="url(#clip0_942_407)">
<path fill-rule="evenodd" clip-rule="evenodd" d="M18 28L4 28C1.79086 28 0 26.2091 0 24V28H28V18C28 20.2091 26.2091 22 24 22H22V24C22 26.2091 20.2091 28 18 28ZM28 3.99605V1.29303e-05H24.0098C24.0065 5.1278e-06 24.0033 1.2242e-06 24 1.22392e-06L10 0C9.99657 -3.00118e-10 9.99314 4.3115e-06 9.98972 1.29303e-05H0V10C0 7.79086 1.79086 6 4 6H6L6 4C6 1.79429 7.78531 0.00555865 9.98972 1.29303e-05H24.0098C26.2131 0.00528701 27.9979 1.79199 28 3.99605ZM20 22H10C7.79086 22 6 20.2091 6 18L6 8H4C2.89543 8 2 8.89543 2 10L2 24C2 25.1046 2.89543 26 4 26L18 26C19.1046 26 20 25.1046 20 24V22ZM10 20H21H24C25.1046 20 26 19.1046 26 18L26 4C26 2.89543 25.1046 2 24 2L10 2C8.89543 2 8 2.89543 8 4L8 7L8 18C8 19.1046 8.89543 20 10 20ZM11.5858 15L12.2929 14.2929L18.5858 8L15 8.00001L14 8.00001L14 6.00001L15 6.00001L21 5.99999L22 5.99999V6.99999V13V14H20V13V9.41421L13.7071 15.7071L13 16.4142L11.5858 15Z" fill="black"/>
</g>
<defs>
<clipPath id="clip0_942_407">
<rect width="28" height="28" fill="white"/>
</clipPath>
</defs>
</svg>
