<svg width="14" height="14" viewBox="0 0 14 14" fill="none" xmlns="http://www.w3.org/2000/svg">
<path fill-rule="evenodd" clip-rule="evenodd" d="M10.5 6.5C10.5 6.81611 10.6495 7.1136 10.9031 7.3023C11.1567 7.49099 11.4846 7.54866 11.7873 7.45783L11.9532 7.40806C12.4749 7.25155 13 7.64221 13 8.18689C13 8.63596 12.636 9 12.1869 9H7V4.44645C7.46872 4.08187 7.92483 3.98206 8.50999 4.00241C9.55381 4.03872 10.5 5.11719 10.5 6.5ZM6 9.5V4C6.79805 3.20195 7.59611 2.97002 8.54476 3.00301C9.94771 3.05181 11.0065 4.15713 11.3665 5.49603C11.4538 5.82086 11.5 6.15943 11.5 6.5L11.6659 6.45024C11.9488 6.36538 12.2321 6.35266 12.4989 6.39947C13.3294 6.54518 14 7.26767 14 8.18689C14 9.18824 13.1882 10 12.1869 10H6.5C6.22386 10 6 9.77615 6 9.5ZM5 4H4V10H5V4ZM0 7H1V9H0V7ZM3 5H2V10H3V5Z" fill="#8D8D8F"/>
</svg>
