<svg width="28" height="28" viewBox="0 0 28 28" fill="none" xmlns="http://www.w3.org/2000/svg">
<path fill-rule="evenodd" clip-rule="evenodd" d="M28 0H0V28H28V0ZM14 20H23.3738C25.3765 20 27 18.3765 27 16.3738C27 13.9447 24.6584 12.2025 22.3318 12.9005L22 13C22 9.75335 19.2432 7.05476 16.0085 7.33296C14.6632 7.44867 13.6111 7.63229 13 8V19C13 19.5523 13.4477 20 14 20ZM11 8C10.4477 8 10 8.44771 10 9V19C10 19.5523 10.4477 20 11 20C11.5523 20 12 19.5523 12 19V9C12 8.44772 11.5523 8 11 8ZM4 13C4 12.4477 4.44772 12 5 12C5.55228 12 6 12.4477 6 13V19C6 19.5523 5.55228 20 5 20C4.44772 20 4 19.5523 4 19V13ZM2 14C1.44772 14 1 14.4477 1 15V18C1 18.5523 1.44772 19 2 19C2.55228 19 3 18.5523 3 18V15C3 14.4477 2.55228 14 2 14ZM7 11C7 10.4477 7.44772 10 8 10C8.55229 10 9 10.4477 9 11V19C9 19.5523 8.55229 20 8 20C7.44772 20 7 19.5523 7 19V11Z" fill="black"/>
</svg>
