<svg width="14" height="14" viewBox="0 0 14 14" fill="none" xmlns="http://www.w3.org/2000/svg">
<path fill-rule="evenodd" clip-rule="evenodd" d="M11 4C11.5523 4 12 3.55228 12 3C12 2.44772 11.5523 2 11 2C10.4477 2 10 2.44772 10 3C10 3.55228 10.4477 4 11 4ZM11 5C12.1046 5 13 4.10457 13 3C13 1.89543 12.1046 1 11 1C9.89543 1 9 1.89543 9 3C9 4.10457 9.89543 5 11 5ZM11 7C9.89543 7 9 7.89543 9 9V13H13V9C13 7.89543 12.1046 7 11 7ZM11 6C9.34315 6 8 7.34315 8 9V13V14H9H13H14V13V9C14 7.34315 12.6569 6 11 6ZM2.5 7H6V8.5C6 9.32843 5.32843 10 4.5 10H2.5C1.67157 10 1 9.32843 1 8.5C1 7.67157 1.67157 7 2.5 7ZM0 8.5C0 7.11929 1.11929 6 2.5 6H6H7V7V8.5C7 9.88071 5.88071 11 4.5 11H2.5C1.11929 11 0 9.88071 0 8.5Z" fill="#8D8D8F"/>
</svg>
