<svg width="28" height="28" viewBox="0 0 28 28" fill="none" xmlns="http://www.w3.org/2000/svg">
<g clip-path="url(#clip0)">
<path d="M8.5625 15.8125L7.50076 16.8742C6.08511 18.2899 6.08511 20.5851 7.50076 22.0008L11.4367 25.9367C12.8524 27.3524 15.1476 27.3524 16.5633 25.9367L17.625 24.875L8.5625 15.8125Z" stroke="#AAAAAA" stroke-width="2"/>
<path d="M8.5625 4.9375L7.50076 5.99924C6.08511 7.41489 6.08511 9.71011 7.50076 11.1258L19.4375 23.0625L20.4992 22.0008C21.9149 20.5851 21.9149 18.2899 20.4992 16.8742L8.5625 4.9375Z" stroke="#AAAAAA" stroke-width="2"/>
<path d="M11.4367 2.06326L10.375 3.125L19.4375 12.1875L20.4992 11.1258C21.9149 9.71011 21.9149 7.41489 20.4992 5.99924L16.5633 2.06326C15.1476 0.647612 12.8524 0.647611 11.4367 2.06326Z" stroke="#AAAAAA" stroke-width="2"/>
</g>
<defs>
<clipPath id="clip0">
<rect width="28" height="28" fill="white"/>
</clipPath>
</defs>
</svg>
