<svg width="14" height="14" viewBox="0 0 14 14" fill="none" xmlns="http://www.w3.org/2000/svg">
<path fill-rule="evenodd" clip-rule="evenodd" d="M7.92808 1.63519C7.41552 1.12262 6.58449 1.12262 6.07192 1.63518L5.45711 2.25L9.25 6.04289L9.86482 5.42808C10.3774 4.91551 10.3774 4.08449 9.86482 3.57192L7.92808 1.63519ZM10.5719 6.13519L9.95711 6.75L10.8219 7.61482C11.725 8.51791 11.725 9.9821 10.8219 10.8852L9.95711 11.75L9.60355 12.1036L9.25 12.4571L8.63519 13.0719C7.7321 13.975 6.2679 13.975 5.36482 13.0719L3.42808 11.1352C2.52499 10.2321 2.52499 8.7679 3.42808 7.86482L4.04289 7.25L3.17808 6.38518C2.27499 5.4821 2.27499 4.0179 3.17808 3.11482L4.04289 2.25L4.39645 1.89645L4.75 1.54289L5.36482 0.928078C6.26791 0.0249904 7.7321 0.0249918 8.63519 0.928079L10.5719 2.86482C11.475 3.76791 11.475 5.2321 10.5719 6.13519ZM4.75 7.95711L4.13519 8.57192C3.62262 9.08449 3.62262 9.91551 4.13518 10.4281L6.07192 12.3648C6.58449 12.8774 7.41552 12.8774 7.92808 12.3648L8.54289 11.75L4.75 7.95711ZM9.25 11.0429L10.1148 10.1781C10.6274 9.66551 10.6274 8.83449 10.1148 8.32193L9.25 7.45711L8.89645 7.10355L4.75 2.95711L3.88519 3.82192C3.37262 4.33449 3.37262 5.16551 3.88518 5.67808L4.75 6.54289L5.10355 6.89645L9.25 11.0429Z" fill="#8D8D8F"/>
</svg>
