<svg width="28" height="28" viewBox="0 0 28 28" fill="none" xmlns="http://www.w3.org/2000/svg">
<path fill-rule="evenodd" clip-rule="evenodd" d="M28 0H0V28H28V0ZM11.4367 2.06326L10.375 3.125L19.4375 12.1875L20.4992 11.1258C21.9149 9.71011 21.9149 7.41489 20.4992 5.99924L16.5633 2.06326C15.1476 0.647612 12.8524 0.647611 11.4367 2.06326ZM7.50076 5.99924L8.5625 4.9375L20.4992 16.8742C21.9149 18.2899 21.9149 20.5851 20.4992 22.0008L19.4375 23.0625L7.50076 11.1258C6.08511 9.71011 6.08511 7.41489 7.50076 5.99924ZM7.50076 16.8742L8.5625 15.8125L17.625 24.875L16.5633 25.9367C15.1476 27.3524 12.8524 27.3524 11.4367 25.9367L7.50076 22.0008C6.08511 20.5851 6.08511 18.2899 7.50076 16.8742Z" fill="black"/>
</svg>
