<svg width="28" height="28" viewBox="0 0 28 28" fill="none" xmlns="http://www.w3.org/2000/svg">
<path d="M25.0589 7.78282C25.0758 8.02748 25.0758 8.27213 25.0758 8.51905C25.0758 16.0425 19.3403 24.7194 8.85275 24.7194V24.7149C5.75469 24.7194 2.72098 23.8332 0.112915 22.1623C0.563399 22.2164 1.01614 22.2435 1.47001 22.2446C4.03743 22.2469 6.53146 21.3866 8.5513 19.8026C6.11146 19.7563 3.97195 18.1678 3.22453 15.8486C4.07921 16.0132 4.95985 15.9794 5.79872 15.7505C3.13872 15.2138 1.22501 12.88 1.22501 10.1696C1.22501 10.1448 1.22501 10.1212 1.22501 10.0975C2.01759 10.5383 2.90501 10.783 3.81275 10.81C1.30743 9.13802 0.535173 5.80978 2.04808 3.20762C4.94291 6.76473 9.21404 8.92718 13.799 9.15606C13.3395 7.17851 13.9673 5.10625 15.4486 3.7161C17.745 1.56042 21.3568 1.67091 23.5155 3.96302C24.7924 3.71159 26.0163 3.2437 27.1363 2.58076C26.7107 3.89875 25.8198 5.01831 24.6298 5.72973C25.76 5.59669 26.8642 5.29454 27.904 4.83341C27.1386 5.9789 26.1744 6.97669 25.0589 7.78282Z" fill="#AAAAAA"/>
</svg>
