<svg width="28" height="28" viewBox="0 0 28 28" fill="none" xmlns="http://www.w3.org/2000/svg">
<path fill-rule="evenodd" clip-rule="evenodd" d="M28 0H0V28H28V0ZM25.0758 8.51896C25.0758 8.27205 25.0758 8.02739 25.0589 7.78273C26.1743 6.97661 27.1385 5.97881 27.904 4.83332C26.8642 5.29445 25.76 5.59661 24.6298 5.72965C25.8198 5.01822 26.7106 3.89867 27.1363 2.58068C26.0163 3.24362 24.7924 3.71151 23.5155 3.96293C21.3568 1.67082 17.745 1.56033 15.4485 3.71602C13.9672 5.10617 13.3395 7.17842 13.799 9.15597C9.21402 8.9271 4.94289 6.76465 2.04805 3.20754C0.535148 5.8097 1.30741 9.13793 3.81273 10.8099C2.90499 10.7829 2.01757 10.5382 1.22499 10.0974V10.1695C1.22499 12.8799 3.1387 15.2138 5.7987 15.7504C4.95983 15.9793 4.07918 16.0131 3.2245 15.8485C3.97192 18.1677 6.11144 19.7563 8.55128 19.8025C6.53144 21.3866 4.03741 22.2468 1.46999 22.2445C1.01612 22.2434 0.563374 22.2164 0.11289 22.1622C2.72095 23.8331 5.75466 24.7193 8.85273 24.7148V24.7193C19.3403 24.7193 25.0758 16.0424 25.0758 8.51896Z" fill="black"/>
</svg>
