<svg width="28" height="28" viewBox="0 0 28 28" fill="none" xmlns="http://www.w3.org/2000/svg">
<path d="M24.2689 8.27976C24.2846 8.50315 24.2846 8.72653 24.2846 8.95197C24.2846 15.8212 18.9588 23.7436 9.22036 23.7436V23.7395C6.34359 23.7436 3.52657 22.9345 1.1048 21.4089C1.5231 21.4583 1.94351 21.483 2.36496 21.484C4.74899 21.4861 7.06488 20.7006 8.94044 19.2543C6.67488 19.2121 4.68818 17.7617 3.99415 15.6442C4.78778 15.7945 5.60552 15.7636 6.38447 15.5546C3.91447 15.0646 2.13746 12.9337 2.13746 10.459C2.13746 10.4364 2.13746 10.4148 2.13746 10.3931C2.87343 10.7956 3.69746 11.019 4.54036 11.0437C2.21399 9.51712 1.49689 6.47829 2.90173 4.10241C5.5898 7.35021 9.55585 9.32462 13.8133 9.53359C13.3867 7.728 13.9696 5.83594 15.345 4.56668C17.4775 2.59844 20.8312 2.69932 22.8358 4.79212C24.0215 4.56256 25.1579 4.13535 26.1979 3.53006C25.8027 4.73344 24.9755 5.75565 23.8705 6.40521C24.92 6.28373 25.9453 6.00785 26.9108 5.58682C26.2 6.63271 25.3047 7.54373 24.2689 8.27976Z" stroke="#AAAAAA" stroke-width="2" stroke-linejoin="round"/>
</svg>
