<svg width="14" height="14" viewBox="0 0 14 14" fill="none" xmlns="http://www.w3.org/2000/svg">
<path fill-rule="evenodd" clip-rule="evenodd" d="M11.0568 2.74197C10.2435 1.89287 8.87808 1.8511 8.01167 2.65081L8.01162 2.65085C7.45521 3.1643 7.22186 3.92645 7.39329 4.65186C7.42943 4.80479 7.39157 4.96581 7.29108 5.08662C7.19058 5.20742 7.03914 5.27396 6.88218 5.26625C4.89482 5.16871 3.0248 4.34876 1.62715 2.9804C1.47789 3.78046 1.81355 4.62421 2.54452 5.1039C2.73156 5.22664 2.81431 5.45869 2.74712 5.67208C2.67994 5.88547 2.47918 6.02827 2.25555 6.02171C2.06866 6.01623 1.88328 5.99429 1.70155 5.95647C1.95264 6.62067 2.53972 7.13817 3.28955 7.28693C3.51753 7.33215 3.68429 7.52851 3.69198 7.76081C3.69968 7.9931 3.5463 8.20007 3.32181 8.26029C3.16662 8.30192 3.00885 8.33164 2.84991 8.34937C3.24007 8.81962 3.82977 9.1152 4.47956 9.12731C4.69179 9.13126 4.8784 9.26879 4.945 9.47035C5.0116 9.6719 4.94367 9.89354 4.77557 10.0232C4.12211 10.5271 3.37142 10.884 2.57607 11.0765C3.23202 11.2709 3.91696 11.3708 4.60949 11.3698C4.62449 11.3698 4.63943 11.3704 4.65425 11.3717C9.16999 11.348 11.6423 7.67627 11.6423 4.47604C11.6423 4.36038 11.6421 4.26629 11.6357 4.17505C11.6235 4.00112 11.7027 3.83336 11.8449 3.73236C11.8597 3.72184 11.8744 3.71125 11.8891 3.70057C11.6952 3.68265 11.5251 3.5522 11.4612 3.36153C11.4043 3.19176 11.4434 3.00938 11.5542 2.87886C11.5405 2.88162 11.5267 2.88434 11.5129 2.887C11.3461 2.9193 11.1743 2.86467 11.0568 2.74197ZM13.4237 2.29444C13.58 2.28455 13.736 2.34855 13.8403 2.47423C13.9824 2.6456 13.9941 2.89035 13.869 3.07452C13.5306 3.57236 13.1163 4.01384 12.6422 4.38484C12.6423 4.41389 12.6423 4.44205 12.6423 4.46906V4.47604C12.6423 8.1347 9.80497 12.3719 4.6102 12.3719C4.59454 12.3719 4.57905 12.3711 4.56376 12.3697C3.04768 12.3631 1.56397 11.9327 0.285917 11.1276C0.0882044 11.003 0.00312332 10.7581 0.08102 10.5378C0.158917 10.3175 0.379015 10.1805 0.611074 10.208C0.800663 10.2303 0.991613 10.2416 1.18353 10.2421C1.87113 10.2426 2.54584 10.0987 3.16437 9.82569C2.4003 9.46677 1.79479 8.81027 1.52197 7.97788C1.47081 7.8218 1.49976 7.65142 1.59761 7.52146C0.961364 6.95097 0.568751 6.13027 0.568751 5.22957V5.22951V5.22944V5.22937V5.22931V5.22924V5.22918V5.22911V5.22904V5.22898V5.22891V5.22884V5.22878V5.22871V5.22865V5.22858V5.22851V5.22845V5.22838V5.22832V5.22825V5.22818V5.22812V5.22805V5.22798V5.22792V5.22785V5.22779V5.22772V5.22765V5.22759V5.22752V5.22746V5.22739V5.22732V5.22726V5.22719V5.22713V5.22706V5.22699V5.22693V5.22686V5.2268V5.22673V5.22667V5.2266V5.22653V5.22647V5.2264V5.22634V5.22627V5.2262V5.22614V5.22607V5.22601V5.22594V5.22588V5.22581V5.22574V5.22568V5.22561V5.22555V5.22548V5.22542V5.22535V5.22528V5.22522V5.22515V5.22509V5.22502V5.22496V5.22489V5.22483V5.22476V5.22469V5.22463V5.22456V5.2245V5.22443V5.22437V5.2243V5.22424V5.22417V5.22411V5.22404V5.22397V5.22391V5.22384V5.22378V5.22371V5.22365V5.22358V5.22352V5.22345V5.22339V5.22332V5.22326V5.22319V5.22312V5.22306V5.22299V5.22293V5.22286V5.2228V5.22273V5.22267V5.2226V5.22254V5.22247V5.22241V5.22234V5.22228V5.22221V5.22215V5.22208V5.22202V5.22195V5.22189V5.22182V5.22176V5.22169V5.22163V5.22156V5.22149V5.22143V5.22136V5.2213V5.22123V5.22117V5.2211V5.22104V5.22097V5.22091V5.22084V5.22078V5.22071V5.22065V5.22058V5.22052V5.22045V5.22039V5.22032V5.22026V5.22019V5.22013V5.22007V5.22V5.21994V5.21987V5.21981V5.21974V5.21968V5.21961V5.21955V5.21948V5.21942V5.21935V5.21929V5.21922V5.21916V5.21909V5.21903V5.21896V5.2189V5.21883V5.21877V5.2187V5.21864V5.21858V5.21851V5.21845V5.21838V5.21832V5.21825V5.21819V5.21812V5.21806V5.21799V5.21793V5.21786V5.2178V5.21773V5.21767V5.21761V5.21754V5.21748V5.21741V5.21735V5.21728V5.21722V5.21715V5.21709V5.21702V5.21696V5.2169V5.21683V5.21677V5.2167V5.21664V5.21657V5.21651V5.21644V5.21638V5.21632V5.21625V5.21619V5.21612V5.21606V5.21599V5.21593V5.21586V5.2158V5.21574V5.21567V5.21561V5.21554V5.21548V5.21541V5.21535V5.21529V5.21522V5.21516V5.21509V5.21503V5.21496V5.2149V5.21484V5.21477V5.21471V5.21464V5.21458V5.21451V5.21445V5.21439V5.21432V5.21426V5.21419V5.21413V5.21406V5.214V5.21394V5.21387V5.21381V5.21374V5.21368V5.21362V5.21355V5.21349V5.21342V5.21336V5.21329V5.21323V5.21317V5.2131V5.21304V5.21297V5.21291V5.21285V5.21278V5.21272V5.21265V5.21259V5.21253V5.21246V5.2124V5.21233V5.21227V5.21221V5.21214V5.21208V5.21201V5.21195V5.21189V5.21182V5.21176V5.21169V5.21163V5.21157V5.2115V5.21144V5.21137V5.21131V5.21125V5.21118V5.21112V5.21105V5.21099V5.21093V5.21086V5.2108V5.21073V5.21067V5.21061V5.21054V5.21048V5.21042V5.21035V5.21029V5.21022V5.21016V5.2101V5.21003V5.20997V5.2099V5.20984V5.20978V5.20971V5.20965V5.20959V5.20952V5.20946V5.20939V5.20933V5.20927V5.2092V5.20914V5.20907V5.20901V5.20895V5.20888V5.20882V5.20876V5.20869V5.20863V5.20856V5.2085V5.20844V5.20837V5.20831V5.20825V5.20818V5.20812V5.20805V5.20799V5.20793V5.20786V5.2078V5.20774V5.20767V5.20761V5.20755V5.20748V5.20742V5.20735V5.20729V5.20723V5.20716V5.2071V5.20704V5.20697V5.20691V5.20685V5.20678V5.20672V5.20665V5.20659V5.20653V5.20646V5.2064V5.20634V5.20627V5.20621V5.20615V5.20608V5.20602V5.20595V5.20589V5.20583V5.20576V5.2057V5.20564V5.20557V5.20551V5.20545V5.20538V5.20532V5.20526V5.20519V5.20513V5.20506V5.205V5.20494V5.20487V5.20481V5.20475V5.20468V5.20462V5.20456V5.20449V5.20443V5.20437V5.2043V5.20424V5.20418V5.20411V5.20405V5.20399V5.20392V5.20386V5.20379V5.20373V5.20367V5.2036V5.20354V5.20348V5.20341V5.20335V5.20329V5.20322V5.20316V5.2031V5.20303V5.20297V5.20291V5.20284V5.20278V5.20272V5.20265V5.20259V5.20253V5.20246V5.2024V5.20234V5.20227V5.20221V5.20215V5.20208V5.20202V5.20195V5.20189V5.20183V5.20176V5.2017V5.20164V5.20157V5.20151V5.20145V5.20138V5.20132V5.20126V5.20119V5.20113V5.20107V5.201V5.20094V5.20088V5.20081V5.20075V5.20069V5.20062V5.20056V5.2005V5.20043V5.20037V5.20031V5.20024V5.20018V5.20012V5.20005V5.19999V5.19993V5.19986V5.1998V5.19974V5.19967V5.19961V5.19955V5.19948V5.19942V5.19936V5.19929V5.19923V5.19917V5.1991V5.19904V5.19898V5.19891V5.19885V5.19879V5.19872V5.19866V5.1986V5.19853V5.19847V5.19841V5.19834V5.19828V5.19822V5.19815V5.19809V5.19803V5.19796V5.1979V5.19784V5.19777V5.19771V5.19765V5.19758V5.19752V5.19746V5.19739V5.19733V5.19727V5.1972V5.19714V5.19708V5.19701V5.19695V5.19689V5.19682V5.19676V5.1967V5.19663C0.568751 5.02006 0.661877 4.85659 0.813758 4.76654C0.845378 4.74779 0.878568 4.73281 0.912702 4.7216C0.465728 3.82014 0.471922 2.72454 1.0205 1.79678C1.10336 1.65663 1.24927 1.56561 1.41158 1.55281C1.57389 1.54001 1.73226 1.60704 1.83607 1.73246C2.96401 3.09527 4.5763 3.97908 6.33818 4.21355C6.32826 3.35326 6.68263 2.51654 7.33341 1.91598M13.4237 2.29444C13.4817 2.17394 13.5319 2.04928 13.574 1.92111C13.6388 1.72386 13.575 1.5071 13.4136 1.37647C13.2522 1.24584 13.0269 1.22852 12.8475 1.33295C12.4486 1.56512 12.0183 1.73953 11.5697 1.85078C10.3654 0.803824 8.52792 0.813488 7.33346 1.91594" fill="#8D8D8F"/>
</svg>
