<svg width="28" height="28" viewBox="0 0 28 28" fill="none" xmlns="http://www.w3.org/2000/svg">
<path fill-rule="evenodd" clip-rule="evenodd" d="M20.3373 1.75H26.25V7.66269C26.25 8.35888 25.9734 9.02656 25.4812 9.51884L16.5188 18.4812C16.0266 18.9734 15.3589 19.25 14.6627 19.25H12.25L8.75 15.75V13.3373C8.75 12.6411 9.02656 11.9734 9.51884 11.4812L18.4812 2.51884C18.9734 2.02656 19.6411 1.75 20.3373 1.75ZM21 9.625C21 11.0747 19.8247 12.25 18.375 12.25C16.9253 12.25 15.75 11.0747 15.75 9.625C15.75 8.17525 16.9253 7 18.375 7C19.8247 7 21 8.17525 21 9.625ZM11.5251 7H8.08732C7.39112 7 6.72344 7.27656 6.23116 7.76884L1.75 12.25H7.13725C7.33043 11.4972 7.7225 10.8026 8.28141 10.2437L11.5251 7ZM15.75 20.8627V26.25L20.2312 21.7688C20.7234 21.2766 21 20.6089 21 19.9127L21 16.4749L17.7563 19.7186C17.1974 20.2775 16.5028 20.6696 15.75 20.8627ZM3.5 21C3.5 19.067 5.067 17.5 7 17.5C8.933 17.5 10.5 19.067 10.5 21C10.5 22.933 8.933 24.5 7 24.5H3.5V21Z" fill="#AAAAAA"/>
</svg>
