<svg width="28" height="28" viewBox="0 0 28 28" fill="none" xmlns="http://www.w3.org/2000/svg">
<g clip-path="url(#clip0)">
<path d="M26.25 1.75H27.25V0.75H26.25V1.75ZM12.25 19.25L11.5429 19.9571L11.8358 20.25H12.25V19.25ZM8.75 15.75H7.75V16.1642L8.0429 16.4571L8.75 15.75ZM9.51885 11.4812L8.81174 10.774L9.51885 11.4812ZM18.4812 2.51884L19.1883 3.22595L19.1883 3.22595L18.4812 2.51884ZM13.5251 7L14.2322 7.70711L15.9393 6H13.5251V7ZM6.23116 7.76884L5.52405 7.06174L6.23116 7.76884ZM1.75 12.25L1.04289 11.5429L-0.664215 13.25H1.75V12.25ZM8.37963 12.25V13.25H8.90627L9.20421 12.8157L8.37963 12.25ZM8.89356 11.6316L8.18645 10.9245L8.18645 10.9245L8.89356 11.6316ZM15.75 26.25H14.75V28.6642L16.4571 26.9571L15.75 26.25ZM15.75 19.6204L15.1842 18.7958L14.75 19.0937V19.6204H15.75ZM20.2312 21.7688L20.9383 22.4759L20.9383 22.4759L20.2312 21.7688ZM21 19.9127L20 19.9127V19.9127H21ZM21 14.4749L22 14.4749L22 12.0607L20.2929 13.7678L21 14.4749ZM16.3684 19.1064L15.6613 18.3993L15.6613 18.3993L16.3684 19.1064ZM2.5 25.5H1.5V26.5H2.5V25.5ZM26.25 0.75H20.3373V2.75H26.25V0.75ZM27.25 7.66269V1.75H25.25V7.66269H27.25ZM26.1883 10.226C26.8681 9.54613 27.25 8.6241 27.25 7.66269H25.25C25.25 8.09367 25.0788 8.50699 24.7741 8.81174L26.1883 10.226ZM17.226 19.1883L26.1883 10.226L24.7741 8.81174L15.8117 17.774L17.226 19.1883ZM14.6627 20.25C15.6241 20.25 16.5461 19.8681 17.226 19.1883L15.8117 17.774C15.507 18.0788 15.0937 18.25 14.6627 18.25V20.25ZM12.25 20.25H14.6627V18.25H12.25V20.25ZM8.0429 16.4571L11.5429 19.9571L12.9571 18.5429L9.45711 15.0429L8.0429 16.4571ZM7.75 13.3373V15.75H9.75V13.3373H7.75ZM8.81174 10.774C8.13192 11.4539 7.75 12.3759 7.75 13.3373H9.75C9.75 12.9063 9.92121 12.493 10.226 12.1883L8.81174 10.774ZM17.7741 1.81174L8.81174 10.774L10.226 12.1883L19.1883 3.22595L17.7741 1.81174ZM20.3373 0.75C19.3759 0.75 18.4539 1.13192 17.7741 1.81174L19.1883 3.22595C19.493 2.9212 19.9063 2.75 20.3373 2.75V0.75ZM18.375 13.25C20.377 13.25 22 11.627 22 9.625H20C20 10.5225 19.2725 11.25 18.375 11.25V13.25ZM14.75 9.625C14.75 11.627 16.373 13.25 18.375 13.25V11.25C17.4775 11.25 16.75 10.5225 16.75 9.625H14.75ZM18.375 6C16.373 6 14.75 7.62297 14.75 9.625H16.75C16.75 8.72754 17.4775 8 18.375 8V6ZM22 9.625C22 7.62297 20.377 6 18.375 6V8C19.2725 8 20 8.72754 20 9.625H22ZM8.08732 8H13.5251V6H8.08732V8ZM6.93827 8.47595C7.24301 8.1712 7.65634 8 8.08732 8V6C7.12591 6 6.20387 6.38192 5.52405 7.06174L6.93827 8.47595ZM2.45711 12.9571L6.93827 8.47595L5.52405 7.06174L1.04289 11.5429L2.45711 12.9571ZM8.37963 11.25H1.75V13.25H8.37963V11.25ZM8.18645 10.9245C7.95251 11.1584 7.74128 11.4128 7.55506 11.6843L9.20421 12.8157C9.32114 12.6453 9.45377 12.4856 9.60067 12.3387L8.18645 10.9245ZM12.818 6.29289L8.18645 10.9245L9.60066 12.3387L14.2322 7.70711L12.818 6.29289ZM16.75 26.25V19.6204H14.75V26.25H16.75ZM19.5241 21.0617L15.0429 25.5429L16.4571 26.9571L20.9383 22.4759L19.5241 21.0617ZM20 19.9127C20 20.3437 19.8288 20.757 19.5241 21.0617L20.9383 22.4759C21.6181 21.7961 22 20.8741 22 19.9127H20ZM20 14.4749L20 19.9127L22 19.9127L22 14.4749L20 14.4749ZM17.0755 19.8136L21.7071 15.182L20.2929 13.7678L15.6613 18.3993L17.0755 19.8136ZM16.3158 20.4449C16.5872 20.2587 16.8416 20.0475 17.0755 19.8136L15.6613 18.3993C15.5144 18.5462 15.3547 18.6789 15.1842 18.7958L16.3158 20.4449ZM6 17.5C3.51472 17.5 1.5 19.5147 1.5 22H3.5C3.5 20.6193 4.61929 19.5 6 19.5V17.5ZM10.5 22C10.5 19.5147 8.48529 17.5 6 17.5V19.5C7.38072 19.5 8.5 20.6193 8.5 22H10.5ZM6 26.5C8.48529 26.5 10.5 24.4853 10.5 22H8.5C8.5 23.3807 7.38072 24.5 6 24.5V26.5ZM2.5 26.5H6V24.5H2.5V26.5ZM1.5 22V25.5H3.5V22H1.5Z" fill="#AAAAAA"/>
</g>
<defs>
<clipPath id="clip0">
<rect width="28" height="28" fill="white"/>
</clipPath>
</defs>
</svg>
