<svg width="28" height="28" viewBox="0 0 28 28" fill="none" xmlns="http://www.w3.org/2000/svg">
<path fill-rule="evenodd" clip-rule="evenodd" d="M28 0H0V28H28V0ZM26.25 1.75H20.3373C19.6411 1.75 18.9734 2.02656 18.4812 2.51884L9.51884 11.4812C9.02656 11.9734 8.75 12.6411 8.75 13.3373V15.75L12.25 19.25H14.6627C15.3589 19.25 16.0266 18.9734 16.5188 18.4812L25.4812 9.51884C25.9734 9.02656 26.25 8.35888 26.25 7.66269V1.75ZM18.375 12.25C19.8247 12.25 21 11.0747 21 9.625C21 8.17525 19.8247 7 18.375 7C16.9253 7 15.75 8.17525 15.75 9.625C15.75 11.0747 16.9253 12.25 18.375 12.25ZM8.08731 7H11.5251L8.28141 10.2437C7.7225 10.8026 7.33043 11.4972 7.13725 12.25H1.75L6.23116 7.76884C6.72344 7.27656 7.39112 7 8.08731 7ZM15.75 26.25V20.8627C16.5028 20.6696 17.1974 20.2775 17.7563 19.7186L21 16.4749L21 19.9127C21 20.6089 20.7234 21.2766 20.2312 21.7688L15.75 26.25ZM7 17.5C5.067 17.5 3.5 19.067 3.5 21V24.5H7C8.933 24.5 10.5 22.933 10.5 21C10.5 19.067 8.933 17.5 7 17.5Z" fill="black"/>
</svg>
