<svg width="14" height="14" viewBox="0 0 14 14" fill="none" xmlns="http://www.w3.org/2000/svg">
<g clip-path="url(#clip0_761_869)">
<path fill-rule="evenodd" clip-rule="evenodd" d="M9.26202 0.530869C9.60193 0.190959 10.063 0 10.5437 0H13.5H14V0.5V3.45634C14 3.93705 13.809 4.39807 13.4691 4.73798L11 7.20711V9.45634C11 9.93705 10.809 10.3981 10.4691 10.738L7.85355 13.3536L7 14.2071V13L7 10H6.5H6.29289L6.14645 9.85355L4.14645 7.85355L4 7.70711V7.5V7H0.999999H-0.207108L0.646446 6.14645L3.26202 3.53087C3.60193 3.19096 4.06295 3 4.54365 3L6.79289 3L9.26202 0.530869ZM8 9.91655V11.7929L9.76202 10.0309C9.9144 9.8785 10 9.67183 10 9.45634V8.20711L8.73797 9.46913C8.52968 9.67743 8.27591 9.82979 8 9.91655ZM4.53087 5.26202C4.32257 5.47032 4.17021 5.72409 4.08345 6H2.20711L3.96913 4.23798C4.1215 4.0856 4.32817 4 4.54365 4L5.79289 4L4.53087 5.26202ZM10.5437 1C10.3282 1 10.1215 1.0856 9.96913 1.23798L5.23798 5.96913C5.0856 6.1215 5 6.32817 5 6.54366V7.29289L6.70711 9H7.45634C7.67183 9 7.87849 8.9144 8.03087 8.76202L12.762 4.03087C12.9144 3.8785 13 3.67183 13 3.45634V1H10.5437ZM1 10.75C1 9.50736 2.00736 8.5 3.25 8.5C4.49264 8.5 5.5 9.50736 5.5 10.75C5.5 11.9926 4.49264 13 3.25 13H1.5H1V12.5V10.75ZM3.25 9.5C2.55964 9.5 2 10.0596 2 10.75V12H3.25C3.94036 12 4.5 11.4404 4.5 10.75C4.5 10.0596 3.94036 9.5 3.25 9.5ZM9.5 6C10.3284 6 11 5.32843 11 4.5C11 3.67157 10.3284 3 9.5 3C8.67157 3 8 3.67157 8 4.5C8 5.32843 8.67157 6 9.5 6Z" fill="#8D8D8F"/>
</g>
<defs>
<clipPath id="clip0_761_869">
<rect width="14" height="14" fill="white"/>
</clipPath>
</defs>
</svg>
