<svg width="28" height="28" viewBox="0 0 28 28" fill="none" xmlns="http://www.w3.org/2000/svg">
<mask id="path-1-inside-1" fill="white">
<path d="M28 14C28 4 28 4 14 4C0 4 0 4 0 14C0 24 0 24 14 24C28 24 28 24 28 14Z"/>
</mask>
<path d="M14 6C17.5351 6 20.065 6.00152 21.9355 6.14998C23.8603 6.30274 24.6893 6.59299 25.0875 6.87747C25.344 7.06069 25.6271 7.38222 25.805 8.52616C25.9943 9.74268 26 11.4322 26 14H30C30 11.5678 30.0057 9.50732 29.7575 7.91134C29.4979 6.24278 28.906 4.68931 27.4125 3.62253C26.0607 2.65701 24.2647 2.32226 22.252 2.16252C20.185 1.99848 17.4649 2 14 2V6ZM26 14C26 16.5678 25.9943 18.2573 25.805 19.4738C25.6271 20.6178 25.344 20.9393 25.0875 21.1225C24.6893 21.407 23.8603 21.6973 21.9355 21.85C20.065 21.9985 17.5351 22 14 22V26C17.4649 26 20.185 26.0015 22.252 25.8375C24.2647 25.6777 26.0607 25.343 27.4125 24.3775C28.906 23.3107 29.4979 21.7572 29.7575 20.0887C30.0057 18.4927 30 16.4322 30 14H26ZM14 22C10.4649 22 7.93505 21.9985 6.06448 21.85C4.13974 21.6973 3.31074 21.407 2.91248 21.1225C2.65597 20.9393 2.37293 20.6178 2.19498 19.4738C2.00575 18.2573 2 16.5678 2 14H-2C-2 16.4322 -2.00575 18.4927 -1.75748 20.0887C-1.49793 21.7572 -0.905967 23.3107 0.587524 24.3775C1.93926 25.343 3.73526 25.6777 5.74802 25.8375C7.81495 26.0015 10.5351 26 14 26V22ZM2 14C2 11.4322 2.00575 9.74268 2.19498 8.52616C2.37293 7.38222 2.65597 7.06069 2.91248 6.87747C3.31074 6.59299 4.13974 6.30274 6.06448 6.14998C7.93505 6.00152 10.4649 6 14 6V2C10.5351 2 7.81495 1.99848 5.74802 2.16252C3.73526 2.32226 1.93926 2.65701 0.587524 3.62253C-0.905967 4.68931 -1.49793 6.24278 -1.75748 7.91134C-2.00575 9.50732 -2 11.5678 -2 14H2Z" fill="#AAAAAA" mask="url(#path-1-inside-1)"/>
<path d="M11 10V18L18.4213 14.042L11 10Z" fill="#AAAAAA"/>
</svg>
