<svg width="14" height="14" viewBox="0 0 14 14" fill="none" xmlns="http://www.w3.org/2000/svg">
<path fill-rule="evenodd" clip-rule="evenodd" d="M7 3C8.76753 3 10.0325 3.00076 10.9678 3.07499C11.9301 3.15137 12.3446 3.2965 12.5438 3.43873C12.672 3.53034 12.8135 3.69111 12.9025 4.26308C12.9971 4.87134 13 5.71608 13 7C13 8.28392 12.9971 9.12866 12.9025 9.73692C12.8135 10.3089 12.672 10.4697 12.5438 10.5613C12.3446 10.7035 11.9301 10.8486 10.9678 10.925C10.0325 10.9992 8.76753 11 7 11C5.23247 11 3.96752 10.9992 3.03224 10.925C2.06987 10.8486 1.65537 10.7035 1.45624 10.5613C1.32798 10.4697 1.18646 10.3089 1.09749 9.73692C1.00287 9.12866 1 8.28392 1 7C1 5.71608 1.00287 4.87134 1.09749 4.26308C1.18646 3.69111 1.32798 3.53034 1.45624 3.43873C1.65537 3.2965 2.06987 3.15137 3.03224 3.07499C3.96752 3.00076 5.23247 3 7 3ZM14 7C14 4.77922 14 3.54482 13.3867 2.85868C12.6191 2 10.8909 2 7 2C3.10909 2 1.38092 2 0.613342 2.85868C0 3.54482 0 4.77922 0 7C0 9.22078 0 10.4552 0.613342 11.1413C1.38092 12 3.10909 12 7 12C10.8909 12 12.6191 12 13.3867 11.1413C14 10.4552 14 9.22078 14 7ZM8.96066 7.02098L5 9V5L8.96066 7.02098Z" fill="#8D8D8F"/>
</svg>
