<svg width="362" height="336" viewBox="0 0 362 336" fill="none" xmlns="http://www.w3.org/2000/svg">
<g clip-path="url(#clip0)">
<path opacity="0.5" fill-rule="evenodd" clip-rule="evenodd" d="M365.742 0.692727C354.975 -2.19226 343.908 4.19731 341.023 14.9642L335.799 34.4595C332.914 45.2264 339.304 56.2935 350.07 59.1785L369.566 64.4022C380.333 67.2872 391.4 60.8976 394.285 50.1307L399.508 30.6354C402.393 19.8685 396.004 8.80145 385.237 5.91646L365.742 0.692727ZM350.77 17.5761C352.213 12.1926 357.746 8.99785 363.13 10.4403L382.625 15.6641C388.009 17.1066 391.203 22.6401 389.761 28.0236L384.537 47.5188C383.095 52.9023 377.561 56.0971 372.178 54.6546L352.682 49.4308C347.299 47.9883 344.104 42.4548 345.547 37.0713L350.77 17.5761ZM339.623 98.1694C328.856 95.2844 317.789 101.674 314.904 112.441L309.68 131.936C306.795 142.703 313.185 153.77 323.952 156.655L343.447 161.879C354.214 164.764 365.281 158.374 368.166 147.607L373.39 128.112C376.275 117.345 369.885 106.278 359.118 103.393L339.623 98.1694ZM324.652 115.053C326.094 109.669 331.628 106.475 337.011 107.917L356.506 113.141C361.89 114.583 365.085 120.117 363.642 125.5L358.418 144.995C356.976 150.379 351.442 153.574 346.059 152.131L326.564 146.908C321.18 145.465 317.985 139.931 319.428 134.548L324.652 115.053ZM253.107 148.12C255.992 137.353 267.059 130.963 277.826 133.848L297.321 139.072C308.088 141.957 314.477 153.024 311.592 163.791L306.369 183.286C303.484 194.053 292.417 200.442 281.65 197.557L262.154 192.334C251.387 189.449 244.998 178.382 247.883 167.615L253.107 148.12ZM275.214 143.596C269.83 142.153 264.297 145.348 262.854 150.731L257.63 170.227C256.188 175.61 259.383 181.144 264.766 182.586L284.262 187.81C289.645 189.252 295.178 186.058 296.621 180.674L301.845 161.179C303.287 155.795 300.092 150.262 294.709 148.819L275.214 143.596ZM216.028 169.527C205.261 166.642 194.194 173.031 191.309 183.798L186.085 203.293C183.201 214.06 189.59 225.127 200.357 228.012L219.852 233.236C230.619 236.121 241.686 229.732 244.571 218.965L249.795 199.469C252.68 188.702 246.29 177.635 235.523 174.75L216.028 169.527ZM201.057 186.41C202.499 181.027 208.033 177.832 213.416 179.274L232.912 184.498C238.295 185.941 241.49 191.474 240.047 196.858L234.824 216.353C233.381 221.736 227.848 224.931 222.464 223.489L202.969 218.265C197.585 216.822 194.391 211.289 195.833 205.905L201.057 186.41ZM155.63 122.001C158.515 111.235 169.582 104.845 180.349 107.73L199.844 112.954C210.611 115.839 217.001 126.906 214.116 137.673L208.892 157.168C206.007 167.935 194.94 174.324 184.173 171.439L164.678 166.216C153.911 163.331 147.521 152.264 150.406 141.497L155.63 122.001ZM177.737 117.478C172.354 116.035 166.82 119.23 165.378 124.613L160.154 144.109C158.711 149.492 161.906 155.026 167.29 156.468L186.785 161.692C192.168 163.134 197.702 159.939 199.144 154.556L204.368 135.061C205.811 129.677 202.616 124.144 197.232 122.701L177.737 117.478ZM206.468 10.2533C195.701 7.36828 184.634 13.7579 181.749 24.5248L176.525 44.02C173.64 54.7869 180.03 65.854 190.796 68.739L210.292 73.9627C221.059 76.8477 232.126 70.4582 235.011 59.6912L240.234 40.196C243.119 29.4291 236.73 18.362 225.963 15.477L206.468 10.2533ZM191.496 27.1366C192.939 21.7532 198.472 18.5584 203.856 20.0009L223.351 25.2246C228.735 26.6671 231.929 32.2007 230.487 37.5841L225.263 57.0794C223.821 62.4628 218.287 65.6576 212.904 64.2151L193.408 58.9914C188.025 57.5489 184.83 52.0154 186.273 46.6319L191.496 27.1366ZM93.8326 157.68C96.7176 146.913 107.785 140.524 118.552 143.409L138.047 148.632C148.814 151.517 155.203 162.584 152.318 173.351L147.095 192.847C144.21 203.613 133.143 210.003 122.376 207.118L102.88 201.894C92.1134 199.009 85.7239 187.942 88.6088 177.175L93.8326 157.68ZM115.94 153.156C110.556 151.714 105.023 154.908 103.58 160.292L98.3565 179.787C96.914 185.171 100.109 190.704 105.492 192.147L124.987 197.37C130.371 198.813 135.904 195.618 137.347 190.235L142.571 170.739C144.013 165.356 140.818 159.822 135.435 158.38L115.94 153.156ZM154.231 205.205C143.464 202.32 132.397 208.71 129.512 219.477L124.288 238.972C121.403 249.739 127.793 260.806 138.56 263.691L158.055 268.915C168.822 271.8 179.889 265.41 182.774 254.643L187.998 235.148C190.883 224.381 184.493 213.314 173.726 210.429L154.231 205.205ZM139.259 222.089C140.702 216.705 146.235 213.51 151.619 214.953L171.114 220.177C176.498 221.619 179.692 227.153 178.25 232.536L173.026 252.031C171.584 257.415 166.05 260.61 160.667 259.167L141.171 253.943C135.788 252.501 132.593 246.967 134.036 241.584L139.259 222.089ZM226.988 245.596C229.873 234.829 240.94 228.44 251.707 231.325L271.202 236.548C281.969 239.433 288.359 250.5 285.474 261.267L280.25 280.763C277.365 291.53 266.298 297.919 255.531 295.034L236.036 289.81C225.269 286.925 218.879 275.858 221.764 265.091L226.988 245.596ZM249.095 241.072C243.712 239.63 238.178 242.825 236.736 248.208L231.512 267.703C230.069 273.087 233.264 278.62 238.648 280.063L258.143 285.287C263.526 286.729 269.06 283.534 270.502 278.151L275.726 258.656C277.168 253.272 273.974 247.739 268.59 246.296L249.095 241.072ZM313.504 195.646C302.737 192.761 291.67 199.151 288.785 209.918L283.562 229.413C280.677 240.18 287.066 251.247 297.833 254.132L317.328 259.355C328.095 262.241 339.162 255.851 342.047 245.084L347.271 225.589C350.156 214.822 343.766 203.755 332.999 200.87L313.504 195.646ZM298.533 212.529C299.975 207.146 305.509 203.951 310.892 205.394L330.388 210.617C335.771 212.06 338.966 217.593 337.523 222.977L332.3 242.472C330.857 247.856 325.324 251.05 319.94 249.608L300.445 244.384C295.061 242.942 291.867 237.408 293.309 232.025L298.533 212.529ZM350.583 174.239C353.468 163.472 364.535 157.082 375.302 159.967L394.797 165.191C405.564 168.076 411.953 179.143 409.068 189.91L403.845 209.405C400.96 220.172 389.893 226.562 379.126 223.677L359.63 218.453C348.863 215.568 342.474 204.501 345.359 193.734L350.583 174.239ZM372.69 169.715C367.306 168.273 361.773 171.467 360.33 176.851L355.107 196.346C353.664 201.729 356.859 207.263 362.242 208.705L381.738 213.929C387.121 215.372 392.655 212.177 394.097 206.793L399.321 187.298C400.763 181.915 397.568 176.381 392.185 174.939L372.69 169.715ZM437.099 124.289C426.332 121.404 415.265 127.793 412.38 138.56L407.156 158.055C404.271 168.822 410.661 179.889 421.428 182.774L440.923 187.998C451.69 190.883 462.757 184.494 465.642 173.727L470.866 154.231C473.751 143.465 467.361 132.397 456.594 129.512L437.099 124.289ZM422.128 141.172C423.57 135.789 429.104 132.594 434.487 134.036L453.982 139.26C459.366 140.703 462.561 146.236 461.118 151.62L455.894 171.115C454.452 176.498 448.918 179.693 443.535 178.251L424.04 173.027C418.656 171.584 415.461 166.051 416.904 160.667L422.128 141.172ZM386.261 236.036C389.146 225.269 400.213 218.879 410.98 221.764L430.476 226.988C441.242 229.873 447.632 240.94 444.747 251.707L439.523 271.202C436.638 281.969 425.571 288.359 414.804 285.474L395.309 280.25C384.542 277.365 378.153 266.298 381.038 255.531L386.261 236.036ZM408.368 231.512C402.985 230.069 397.451 233.264 396.009 238.648L390.785 258.143C389.343 263.526 392.537 269.06 397.921 270.502L417.416 275.726C422.8 277.168 428.333 273.974 429.776 268.59L434.999 249.095C436.442 243.712 433.247 238.178 427.864 236.736L408.368 231.512ZM384.862 319.241C374.095 316.356 363.028 322.745 360.143 333.512L354.919 353.008C352.034 363.774 358.423 374.842 369.19 377.727L388.686 382.95C399.453 385.835 410.52 379.446 413.405 368.679L418.628 349.184C421.513 338.417 415.124 327.35 404.357 324.465L384.862 319.241ZM369.89 336.124C371.333 330.741 376.866 327.546 382.25 328.988L401.745 334.212C407.128 335.655 410.323 341.188 408.881 346.572L403.657 366.067C402.214 371.45 396.681 374.645 391.297 373.203L371.802 367.979C366.419 366.536 363.224 361.003 364.666 355.619L369.89 336.124ZM262.667 307.393C265.552 296.626 276.619 290.236 287.386 293.121L306.881 298.345C317.648 301.23 324.037 312.297 321.152 323.064L315.929 342.559C313.044 353.326 301.977 359.716 291.21 356.831L271.714 351.607C260.947 348.722 254.558 337.655 257.443 326.888L262.667 307.393ZM284.774 302.869C279.39 301.427 273.857 304.621 272.414 310.005L267.19 329.5C265.748 334.884 268.943 340.417 274.326 341.86L293.821 347.083C299.205 348.526 304.738 345.331 306.181 339.948L311.405 320.452C312.847 315.069 309.652 309.535 304.269 308.093L284.774 302.869ZM189.909 267.003C179.143 264.118 168.076 270.508 165.191 281.275L159.967 300.77C157.082 311.537 163.471 322.604 174.238 325.489L193.734 330.713C204.5 333.598 215.568 327.208 218.452 316.441L223.676 296.946C226.561 286.179 220.172 275.112 209.405 272.227L189.909 267.003ZM174.938 283.887C176.381 278.503 181.914 275.308 187.298 276.751L206.793 281.975C212.176 283.417 215.371 288.951 213.929 294.334L208.705 313.829C207.262 319.213 201.729 322.408 196.345 320.965L176.85 315.741C171.467 314.299 168.272 308.765 169.714 303.382L174.938 283.887ZM103.393 316.954C106.278 306.187 117.345 299.797 128.112 302.682L147.607 307.906C158.374 310.791 164.764 321.858 161.879 332.625L156.655 352.12C153.77 362.887 142.703 369.276 131.936 366.391L112.441 361.168C101.674 358.283 95.2844 347.216 98.1694 336.449L103.393 316.954ZM125.5 312.43C120.117 310.987 114.583 314.182 113.141 319.565L107.917 339.061C106.475 344.444 109.669 349.978 115.053 351.42L134.548 356.644C139.931 358.086 145.465 354.892 146.908 349.508L152.131 330.013C153.574 324.629 150.379 319.096 144.995 317.653L125.5 312.43ZM30.6354 276.564C19.8685 273.679 8.80145 280.068 5.91646 290.835L0.692727 310.331C-2.19226 321.098 4.19731 332.165 14.9642 335.05L34.4595 340.273C45.2264 343.158 56.2935 336.769 59.1785 326.002L64.4022 306.507C67.2872 295.74 60.8976 284.673 50.1307 281.788L30.6354 276.564ZM15.6641 293.447C17.1066 288.064 22.6401 284.869 28.0236 286.312L47.5188 291.535C52.9023 292.978 56.0971 298.511 54.6546 303.895L49.4308 323.39C47.9883 328.773 42.4548 331.968 37.0713 330.526L17.5761 325.302C12.1926 323.859 8.99785 318.326 10.4403 312.943L15.6641 293.447ZM236.548 404.87C239.433 394.103 250.5 387.713 261.267 390.598L280.762 395.822C291.529 398.707 297.919 409.774 295.034 420.541L289.81 440.036C286.925 450.803 275.858 457.193 265.091 454.308L245.596 449.084C234.829 446.199 228.439 435.132 231.324 424.365L236.548 404.87ZM258.655 400.346C253.271 398.903 247.738 402.098 246.295 407.482L241.072 426.977C239.629 432.36 242.824 437.894 248.207 439.336L267.703 444.56C273.086 446.002 278.62 442.808 280.062 437.424L285.286 417.929C286.728 412.546 283.534 407.012 278.15 405.569L258.655 400.346ZM225.588 328.8C214.821 325.915 203.754 332.305 200.869 343.072L195.645 362.567C192.76 373.334 199.15 384.401 209.917 387.286L229.412 392.51C240.179 395.395 251.246 389.005 254.131 378.238L259.355 358.743C262.24 347.976 255.85 336.909 245.083 334.024L225.588 328.8ZM210.617 345.684C212.059 340.3 217.593 337.105 222.976 338.548L242.472 343.771C247.855 345.214 251.05 350.747 249.607 356.131L244.384 375.626C242.941 381.01 237.408 384.204 232.024 382.762L212.529 377.538C207.145 376.096 203.951 370.562 205.393 365.179L210.617 345.684Z" fill="url(#paint0_linear)"/>
</g>
<defs>
<linearGradient id="paint0_linear" x1="235.779" y1="0" x2="235.779" y2="455" gradientUnits="userSpaceOnUse">
<stop stop-color="#1EEBB0"/>
<stop offset="1" stop-color="#0391EC"/>
</linearGradient>
<clipPath id="clip0">
<rect width="362" height="336" fill="white"/>
</clipPath>
</defs>
</svg>
