<svg width="28" height="29" viewBox="0 0 28 29" fill="none" xmlns="http://www.w3.org/2000/svg">
<g clip-path="url(#clip0)">
<path d="M19 21.5L19 20.5L19 21.5ZM3 10.5L4 10.5L3 10.5ZM9 4.49999L8 4.49999L9 4.49999ZM22 21.5L22 22.5L22 21.5ZM12 2.49999L22 2.49999L22 0.499988L12 0.499987L12 2.49999ZM24 4.49999L24 18.5L26 18.5L26 4.49999L24 4.49999ZM6 28.5L16 28.5L16 26.5L6 26.5L6 28.5ZM4 24.5L4 10.5L2 10.5L2 24.5L4 24.5ZM22 20.5L19 20.5L19 22.5L22 22.5L22 20.5ZM10 7.49999L10 4.49999L8 4.49999L8 7.49999L10 7.49999ZM10 18.5L10 7.49999L8 7.49999L8 18.5L10 18.5ZM19 20.5L12 20.5L12 22.5L19 22.5L19 20.5ZM6 8.49999L9 8.49999L9 6.49999L6 6.49999L6 8.49999ZM20 24.5L20 21.5L18 21.5L18 24.5L20 24.5ZM8 18.5C8 20.7091 9.79086 22.5 12 22.5L12 20.5C10.8954 20.5 10 19.6046 10 18.5L8 18.5ZM4 10.5C4 9.39542 4.89543 8.49999 6 8.49999L6 6.49999C3.79086 6.49999 2 8.29085 2 10.5L4 10.5ZM16 28.5C18.2091 28.5 20 26.7091 20 24.5L18 24.5C18 25.6046 17.1046 26.5 16 26.5L16 28.5ZM6 26.5C4.89543 26.5 4 25.6046 4 24.5L2 24.5C2 26.7091 3.79086 28.5 6 28.5L6 26.5ZM22 2.49999C23.1046 2.49999 24 3.39542 24 4.49999L26 4.49999C26 2.29085 24.2091 0.499988 22 0.499988L22 2.49999ZM12 0.499987C9.79086 0.499987 8 2.29085 8 4.49999L10 4.49999C10 3.39542 10.8954 2.49999 12 2.49999L12 0.499987ZM24 18.5C24 19.6046 23.1046 20.5 22 20.5L22 22.5C24.2091 22.5 26 20.7091 26 18.5L24 18.5Z" fill="white"/>
</g>
<defs>
<clipPath id="clip0">
<rect width="28" height="28" fill="white" transform="translate(0 0.5)"/>
</clipPath>
</defs>
</svg>
