<svg width="131" height="20" viewBox="0 0 131 20" fill="none" xmlns="http://www.w3.org/2000/svg">
<g clip-path="url(#clip0_2262_7722)">
<path fill-rule="evenodd" clip-rule="evenodd" d="M18.3191 0.137289C16.1852 -0.434478 13.9919 0.831853 13.4201 2.96572L12.3848 6.82942C11.8131 8.96328 13.0794 11.1566 15.2133 11.7284L19.077 12.7637C21.2108 13.3354 23.4042 12.0691 23.976 9.93525L25.0112 6.07154C25.583 3.93768 24.3167 1.74433 22.1828 1.17256L18.3191 0.137289ZM15.352 3.48335C15.6379 2.41642 16.7345 1.78326 17.8015 2.06914L21.6652 3.10442C22.7321 3.3903 23.3653 4.48697 23.0794 5.55391L22.0441 9.41761C21.7582 10.4845 20.6615 11.1177 19.5946 10.8318L15.7309 9.79655C14.664 9.51066 14.0308 8.41399 14.3167 7.34706L15.352 3.48335ZM6.07155 7.20833C3.93768 6.63657 1.74433 7.9029 1.17257 10.0368L0.13729 13.9005C-0.434478 16.0343 0.831852 18.2277 2.96572 18.7994L6.82942 19.8347C8.96328 20.4065 11.1566 19.1402 11.7284 17.0063L12.7637 13.1426C13.3354 11.0087 12.0691 8.81538 9.93525 8.24361L6.07155 7.20833ZM3.10442 10.5544C3.3903 9.48747 4.48698 8.8543 5.55391 9.14019L9.41761 10.1755C10.4845 10.4613 11.1177 11.558 10.8318 12.625L9.79655 16.4887C9.51066 17.5556 8.41399 18.1888 7.34706 17.9029L3.48335 16.8676C2.41642 16.5817 1.78326 15.485 2.06914 14.4181L3.10442 10.5544Z" fill="white"/>
<path d="M34.4209 16.178C33.4929 16.178 32.6822 15.9593 31.9889 15.522C31.3062 15.074 30.8369 14.4713 30.5809 13.714L32.1489 12.962C32.3729 13.4527 32.6822 13.8367 33.0769 14.114C33.4822 14.3913 33.9302 14.53 34.4209 14.53C34.8049 14.53 35.1089 14.4447 35.3329 14.274C35.5569 14.1033 35.6689 13.8793 35.6689 13.602C35.6689 13.4313 35.6209 13.2927 35.5249 13.186C35.4396 13.0687 35.3169 12.9727 35.1569 12.898C35.0076 12.8127 34.8422 12.7433 34.6609 12.69L33.2369 12.29C32.5009 12.0767 31.9409 11.7513 31.5569 11.314C31.1836 10.8767 30.9969 10.3593 30.9969 9.76201C30.9969 9.22867 31.1302 8.76467 31.3969 8.37001C31.6742 7.96467 32.0529 7.65001 32.5329 7.42601C33.0236 7.20201 33.5836 7.09001 34.2129 7.09001C35.0342 7.09001 35.7596 7.28734 36.3889 7.68201C37.0182 8.07667 37.4662 8.63134 37.7329 9.34601L36.1329 10.098C35.9836 9.70334 35.7329 9.38867 35.3809 9.15401C35.0289 8.91934 34.6342 8.80201 34.1969 8.80201C33.8449 8.80201 33.5676 8.88201 33.3649 9.04201C33.1622 9.20201 33.0609 9.41001 33.0609 9.66601C33.0609 9.82601 33.1036 9.96467 33.1889 10.082C33.2742 10.1993 33.3916 10.2953 33.5409 10.37C33.7009 10.4447 33.8822 10.514 34.0849 10.578L35.4769 10.994C36.1916 11.2073 36.7409 11.5273 37.1249 11.954C37.5196 12.3807 37.7169 12.9033 37.7169 13.522C37.7169 14.0447 37.5782 14.5087 37.3009 14.914C37.0236 15.3087 36.6396 15.618 36.1489 15.842C35.6582 16.066 35.0822 16.178 34.4209 16.178ZM43.2957 16.082C42.3143 16.082 41.5517 15.8153 41.0077 15.282C40.4743 14.738 40.2077 13.9753 40.2077 12.994V9.15401H38.7037V7.28201H38.8637C39.2903 7.28201 39.621 7.17001 39.8557 6.94601C40.0903 6.72201 40.2077 6.39667 40.2077 5.97001V5.29801H42.3037V7.28201H44.3037V9.15401H42.3037V12.882C42.3037 13.17 42.3517 13.4153 42.4477 13.618C42.5543 13.8207 42.7143 13.9753 42.9277 14.082C43.1517 14.1887 43.4343 14.242 43.7757 14.242C43.8503 14.242 43.9357 14.2367 44.0317 14.226C44.1383 14.2153 44.2397 14.2047 44.3357 14.194V15.986C44.1863 16.0073 44.0157 16.0287 43.8237 16.05C43.6317 16.0713 43.4557 16.082 43.2957 16.082ZM49.041 16.178C48.369 16.178 47.7824 16.0287 47.281 15.73C46.7904 15.4313 46.4117 15.0153 46.145 14.482C45.889 13.9487 45.761 13.3247 45.761 12.61V7.28201H47.857V12.434C47.857 12.7967 47.9264 13.1167 48.065 13.394C48.2144 13.6607 48.4224 13.874 48.689 14.034C48.9664 14.1833 49.2757 14.258 49.617 14.258C49.9584 14.258 50.2624 14.1833 50.529 14.034C50.7957 13.874 51.0037 13.6553 51.153 13.378C51.3024 13.1007 51.377 12.77 51.377 12.386V7.28201H53.473V15.986H51.489V14.274L51.665 14.578C51.4624 15.1113 51.1264 15.5113 50.657 15.778C50.1984 16.0447 49.6597 16.178 49.041 16.178ZM59.4694 16.178C58.6267 16.178 57.8747 15.9807 57.2134 15.586C56.5521 15.1807 56.0294 14.6313 55.6454 13.938C55.2614 13.2447 55.0694 12.4767 55.0694 11.634C55.0694 10.7807 55.2614 10.0127 55.6454 9.33001C56.0294 8.64734 56.5521 8.10334 57.2134 7.69801C57.8854 7.29267 58.6321 7.09001 59.4534 7.09001C60.1147 7.09001 60.7014 7.22334 61.2134 7.49001C61.7361 7.74601 62.1467 8.10867 62.4454 8.57801L62.1254 9.01001V3.87401H64.2214V15.986H62.2374V14.306L62.4614 14.722C62.1627 15.1913 61.7467 15.554 61.2134 15.81C60.6801 16.0553 60.0987 16.178 59.4694 16.178ZM59.6934 14.258C60.1734 14.258 60.5947 14.146 60.9574 13.922C61.3201 13.698 61.6027 13.3887 61.8054 12.994C62.0187 12.5993 62.1254 12.146 62.1254 11.634C62.1254 11.1327 62.0187 10.6847 61.8054 10.29C61.6027 9.88467 61.3201 9.57001 60.9574 9.34601C60.5947 9.12201 60.1734 9.01001 59.6934 9.01001C59.2241 9.01001 58.8027 9.12734 58.4294 9.36201C58.0561 9.58601 57.7627 9.89534 57.5494 10.29C57.3467 10.674 57.2454 11.122 57.2454 11.634C57.2454 12.146 57.3467 12.5993 57.5494 12.994C57.7627 13.3887 58.0561 13.698 58.4294 13.922C58.8027 14.146 59.2241 14.258 59.6934 14.258ZM66.1714 15.986V7.28201H68.2674V15.986H66.1714ZM66.1714 6.30601V4.06601H68.2674V6.30601H66.1714ZM74.4587 16.178C73.6053 16.178 72.8267 15.9807 72.1227 15.586C71.4293 15.1913 70.8747 14.6527 70.4587 13.97C70.0533 13.2873 69.8507 12.5087 69.8507 11.634C69.8507 10.7593 70.0533 9.98067 70.4587 9.29801C70.8747 8.61534 71.4293 8.07667 72.1227 7.68201C72.816 7.28734 73.5947 7.09001 74.4587 7.09001C75.312 7.09001 76.0853 7.28734 76.7787 7.68201C77.472 8.07667 78.0213 8.61534 78.4267 9.29801C78.8427 9.97001 79.0507 10.7487 79.0507 11.634C79.0507 12.5087 78.8427 13.2873 78.4267 13.97C78.0107 14.6527 77.456 15.1913 76.7627 15.586C76.0693 15.9807 75.3013 16.178 74.4587 16.178ZM74.4587 14.258C74.928 14.258 75.3387 14.146 75.6907 13.922C76.0533 13.698 76.336 13.3887 76.5387 12.994C76.752 12.5887 76.8587 12.1353 76.8587 11.634C76.8587 11.122 76.752 10.674 76.5387 10.29C76.336 9.89534 76.0533 9.58601 75.6907 9.36201C75.3387 9.12734 74.928 9.01001 74.4587 9.01001C73.9787 9.01001 73.5573 9.12734 73.1947 9.36201C72.832 9.58601 72.544 9.89534 72.3307 10.29C72.128 10.674 72.0267 11.122 72.0267 11.634C72.0267 12.1353 72.128 12.5887 72.3307 12.994C72.544 13.3887 72.832 13.698 73.1947 13.922C73.5573 14.146 73.9787 14.258 74.4587 14.258ZM87.6119 16.178C86.7159 16.178 85.9319 15.9753 85.2599 15.57C84.5879 15.1647 84.0652 14.6153 83.6919 13.922C83.3186 13.2287 83.1319 12.4607 83.1319 11.618C83.1319 10.7433 83.3186 9.97001 83.6919 9.29801C84.0759 8.61534 84.5932 8.07667 85.2439 7.68201C85.9052 7.28734 86.6412 7.09001 87.4519 7.09001C88.1346 7.09001 88.7319 7.20201 89.2439 7.42601C89.7666 7.65001 90.2092 7.95934 90.5719 8.35401C90.9346 8.74867 91.2119 9.20201 91.4039 9.71401C91.5959 10.2153 91.6919 10.7593 91.6919 11.346C91.6919 11.4953 91.6812 11.65 91.6599 11.81C91.6492 11.97 91.6226 12.1087 91.5799 12.226H84.8599V10.626H90.3959L89.4039 11.378C89.4999 10.8873 89.4732 10.45 89.3239 10.066C89.1852 9.68201 88.9506 9.37801 88.6199 9.15401C88.2999 8.93001 87.9106 8.81801 87.4519 8.81801C87.0146 8.81801 86.6252 8.93001 86.2839 9.15401C85.9426 9.36734 85.6812 9.68734 85.4999 10.114C85.3292 10.53 85.2652 11.0367 85.3079 11.634C85.2652 12.1673 85.3346 12.642 85.5159 13.058C85.7079 13.4633 85.9852 13.778 86.3479 14.002C86.7212 14.226 87.1479 14.338 87.6279 14.338C88.1079 14.338 88.5132 14.2367 88.8439 14.034C89.1852 13.8313 89.4519 13.5593 89.6439 13.218L91.3399 14.05C91.1692 14.466 90.9026 14.834 90.5399 15.154C90.1772 15.474 89.7452 15.7247 89.2439 15.906C88.7532 16.0873 88.2092 16.178 87.6119 16.178ZM93.2808 15.986V3.87401H95.3768V15.986H93.2808ZM101.28 16.082C100.299 16.082 99.536 15.8153 98.992 15.282C98.4587 14.738 98.192 13.9753 98.192 12.994V9.15401H96.688V7.28201H96.848C97.2747 7.28201 97.6054 7.17001 97.84 6.94601C98.0747 6.72201 98.192 6.39667 98.192 5.97001V5.29801H100.288V7.28201H102.288V9.15401H100.288V12.882C100.288 13.17 100.336 13.4153 100.432 13.618C100.539 13.8207 100.699 13.9753 100.912 14.082C101.136 14.1887 101.419 14.242 101.76 14.242C101.835 14.242 101.92 14.2367 102.016 14.226C102.123 14.2153 102.224 14.2047 102.32 14.194V15.986C102.171 16.0073 102 16.0287 101.808 16.05C101.616 16.0713 101.44 16.082 101.28 16.082ZM107.889 16.082C106.908 16.082 106.145 15.8153 105.601 15.282C105.068 14.738 104.801 13.9753 104.801 12.994V9.15401H103.297V7.28201H103.457C103.884 7.28201 104.215 7.17001 104.449 6.94601C104.684 6.72201 104.801 6.39667 104.801 5.97001V5.29801H106.897V7.28201H108.897V9.15401H106.897V12.882C106.897 13.17 106.945 13.4153 107.041 13.618C107.148 13.8207 107.308 13.9753 107.521 14.082C107.745 14.1887 108.028 14.242 108.369 14.242C108.444 14.242 108.529 14.2367 108.625 14.226C108.732 14.2153 108.833 14.2047 108.929 14.194V15.986C108.78 16.0073 108.609 16.0287 108.417 16.05C108.225 16.0713 108.049 16.082 107.889 16.082ZM114.709 16.178C113.855 16.178 113.077 15.9807 112.373 15.586C111.679 15.1913 111.125 14.6527 110.709 13.97C110.303 13.2873 110.101 12.5087 110.101 11.634C110.101 10.7593 110.303 9.98067 110.709 9.29801C111.125 8.61534 111.679 8.07667 112.373 7.68201C113.066 7.28734 113.845 7.09001 114.709 7.09001C115.562 7.09001 116.335 7.28734 117.029 7.68201C117.722 8.07667 118.271 8.61534 118.677 9.29801C119.093 9.97001 119.301 10.7487 119.301 11.634C119.301 12.5087 119.093 13.2873 118.677 13.97C118.261 14.6527 117.706 15.1913 117.013 15.586C116.319 15.9807 115.551 16.178 114.709 16.178ZM114.709 14.258C115.178 14.258 115.589 14.146 115.941 13.922C116.303 13.698 116.586 13.3887 116.789 12.994C117.002 12.5887 117.109 12.1353 117.109 11.634C117.109 11.122 117.002 10.674 116.789 10.29C116.586 9.89534 116.303 9.58601 115.941 9.36201C115.589 9.12734 115.178 9.01001 114.709 9.01001C114.229 9.01001 113.807 9.12734 113.445 9.36201C113.082 9.58601 112.794 9.89534 112.581 10.29C112.378 10.674 112.277 11.122 112.277 11.634C112.277 12.1353 112.378 12.5887 112.581 12.994C112.794 13.3887 113.082 13.698 113.445 13.922C113.807 14.146 114.229 14.258 114.709 14.258ZM125.642 16.178C125.013 16.178 124.431 16.0553 123.898 15.81C123.375 15.554 122.959 15.1913 122.65 14.722L122.858 14.306V15.986H120.89V3.87401H122.986V9.01001L122.666 8.57801C122.965 8.10867 123.37 7.74601 123.882 7.49001C124.394 7.22334 124.986 7.09001 125.658 7.09001C126.479 7.09001 127.221 7.29267 127.882 7.69801C128.543 8.10334 129.066 8.64734 129.45 9.33001C129.845 10.0127 130.042 10.7807 130.042 11.634C130.042 12.4767 129.85 13.2447 129.466 13.938C129.082 14.6313 128.559 15.1807 127.898 15.586C127.237 15.9807 126.485 16.178 125.642 16.178ZM125.402 14.258C125.882 14.258 126.309 14.146 126.682 13.922C127.055 13.698 127.343 13.3887 127.546 12.994C127.759 12.5993 127.866 12.146 127.866 11.634C127.866 11.122 127.759 10.674 127.546 10.29C127.343 9.89534 127.055 9.58601 126.682 9.36201C126.309 9.12734 125.882 9.01001 125.402 9.01001C124.943 9.01001 124.527 9.12201 124.154 9.34601C123.791 9.57001 123.503 9.88467 123.29 10.29C123.087 10.6847 122.986 11.1327 122.986 11.634C122.986 12.146 123.087 12.5993 123.29 12.994C123.503 13.3887 123.791 13.698 124.154 13.922C124.527 14.146 124.943 14.258 125.402 14.258Z" fill="white"/>
</g>
<defs>
<clipPath id="clip0_2262_7722">
<rect width="131" height="20" fill="white"/>
</clipPath>
</defs>
</svg>
