<svg width="80" height="32" viewBox="0 0 80 32" fill="none" xmlns="http://www.w3.org/2000/svg">
<path d="M9.55025 24.4497C10.817 25.7165 12.567 26.5 14.5 26.5C17.671 26.5 20.3496 24.3915 21.2101 21.5M9.55025 24.4497C8.2835 23.183 7.5 21.433 7.5 19.5C7.5 15.634 10.634 12.5 14.5 12.5C16.433 12.5 18.183 13.2835 19.4497 14.5503L9.55025 24.4497Z" stroke="white" stroke-width="2"/>
<circle cx="47.5" cy="19.5" r="7" stroke="white" stroke-width="2"/>
<circle cx="64.5" cy="19.5" r="7" stroke="white" stroke-width="2"/>
<path d="M24.5 4V27.5" stroke="white" stroke-width="2"/>
<path d="M57.5 19.5V4" stroke="white" stroke-width="2"/>
<path d="M30.5 6.5V27.5" stroke="white" stroke-width="2"/>
<path d="M27 12.5H33" stroke="white" stroke-width="2"/>
<path d="M36.5 6.5V27.5" stroke="white" stroke-width="2"/>
<path d="M33 12.5H40" stroke="white" stroke-width="2"/>
</svg>
