<svg width="37" height="37" viewBox="0 0 37 37" fill="none" xmlns="http://www.w3.org/2000/svg">
<rect x="0.5" y="0.5" width="36" height="36" rx="3" fill="black" stroke="url(#paint0_linear_1936_2283)"/>
<mask id="mask0_1936_2283" style="mask-type:alpha" maskUnits="userSpaceOnUse" x="2" y="2" width="33" height="33">
<rect x="2.5" y="2.5" width="6" height="6" rx="1" stroke="black"/>
<rect x="28.5" y="2.5" width="6" height="6" rx="1" stroke="black"/>
<rect x="2.5" y="28.5" width="6" height="6" rx="1" stroke="black"/>
<rect x="26.5" y="26.5" width="4" height="4" rx="0.5" stroke="black"/>
<rect x="4" y="4" width="3" height="3" rx="0.5" fill="black"/>
<rect x="30" y="4" width="3" height="3" rx="0.5" fill="black"/>
<rect x="4" y="30" width="3" height="3" rx="0.5" fill="black"/>
<rect x="28" y="28" width="1" height="1" rx="0.5" fill="black"/>
<rect x="11" y="2" width="1" height="1" rx="0.5" fill="black"/>
<rect x="11" y="4" width="1" height="1" rx="0.5" fill="black"/>
<rect x="11" y="6" width="1" height="1" rx="0.5" fill="black"/>
<rect x="11" y="9" width="1" height="1" rx="0.5" fill="black"/>
<rect x="11" y="10" width="1" height="1" rx="0.5" fill="black"/>
<rect x="11" y="11" width="1" height="1" rx="0.5" fill="black"/>
<rect x="11" y="15" width="1" height="1" rx="0.5" fill="black"/>
<rect x="11" y="18" width="1" height="1" rx="0.5" fill="black"/>
<rect x="11" y="19" width="1" height="1" rx="0.5" fill="black"/>
<rect x="11" y="21" width="1" height="1" rx="0.5" fill="black"/>
<rect x="11" y="23" width="1" height="1" rx="0.5" fill="black"/>
<rect x="11" y="24" width="1" height="1" rx="0.5" fill="black"/>
<rect x="11" y="25" width="1" height="1" rx="0.5" fill="black"/>
<rect x="10" y="3" width="1" height="1" rx="0.5" fill="black"/>
<rect x="10" y="7" width="1" height="1" rx="0.5" fill="black"/>
<rect x="10" y="8" width="1" height="1" rx="0.5" fill="black"/>
<rect x="10" y="9" width="1" height="1" rx="0.5" fill="black"/>
<rect x="10" y="11" width="1" height="1" rx="0.5" fill="black"/>
<rect x="10" y="12" width="1" height="1" rx="0.5" fill="black"/>
<rect x="10" y="13" width="1" height="1" rx="0.5" fill="black"/>
<rect x="10" y="14" width="1" height="1" rx="0.5" fill="black"/>
<rect x="10" y="15" width="1" height="1" rx="0.5" fill="black"/>
<rect x="10" y="16" width="1" height="1" rx="0.5" fill="black"/>
<rect x="10" y="20" width="1" height="1" rx="0.5" fill="black"/>
<rect x="10" y="21" width="1" height="1" rx="0.5" fill="black"/>
<rect x="10" y="22" width="1" height="1" rx="0.5" fill="black"/>
<rect x="10" y="24" width="1" height="1" rx="0.5" fill="black"/>
<rect x="9" y="10" width="1" height="1" rx="0.5" fill="black"/>
<rect x="8" y="10" width="1" height="1" rx="0.5" fill="black"/>
<rect x="7" y="10" width="1" height="1" rx="0.5" fill="black"/>
<rect x="6" y="10" width="1" height="1" rx="0.5" fill="black"/>
<rect x="9" y="11" width="1" height="1" rx="0.5" fill="black"/>
<rect x="7" y="11" width="1" height="1" rx="0.5" fill="black"/>
<rect x="6" y="11" width="1" height="1" rx="0.5" fill="black"/>
<rect x="4" y="11" width="1" height="1" rx="0.5" fill="black"/>
<rect x="3" y="11" width="1" height="1" rx="0.5" fill="black"/>
<rect x="8" y="12" width="1" height="1" rx="0.5" fill="black"/>
<rect x="7" y="12" width="1" height="1" rx="0.5" fill="black"/>
<rect x="6" y="12" width="1" height="1" rx="0.5" fill="black"/>
<rect x="5" y="12" width="1" height="1" rx="0.5" fill="black"/>
<rect x="4" y="12" width="1" height="1" rx="0.5" fill="black"/>
<rect x="3" y="12" width="1" height="1" rx="0.5" fill="black"/>
<rect x="9" y="13" width="1" height="1" rx="0.5" fill="black"/>
<rect x="5" y="13" width="1" height="1" rx="0.5" fill="black"/>
<rect x="4" y="13" width="1" height="1" rx="0.5" fill="black"/>
<rect x="8" y="14" width="1" height="1" rx="0.5" fill="black"/>
<rect x="7" y="14" width="1" height="1" rx="0.5" fill="black"/>
<rect x="6" y="14" width="1" height="1" rx="0.5" fill="black"/>
<rect x="5" y="14" width="1" height="1" rx="0.5" fill="black"/>
<rect x="4" y="14" width="1" height="1" rx="0.5" fill="black"/>
<rect x="3" y="14" width="1" height="1" rx="0.5" fill="black"/>
<rect x="2" y="14" width="1" height="1" rx="0.5" fill="black"/>
<rect x="7" y="15" width="1" height="1" rx="0.5" fill="black"/>
<rect x="6" y="15" width="1" height="1" rx="0.5" fill="black"/>
<rect x="5" y="15" width="1" height="1" rx="0.5" fill="black"/>
<rect x="3" y="15" width="1" height="1" rx="0.5" fill="black"/>
<rect x="2" y="15" width="1" height="1" rx="0.5" fill="black"/>
<rect x="8" y="16" width="1" height="1" rx="0.5" fill="black"/>
<rect x="4" y="16" width="1" height="1" rx="0.5" fill="black"/>
<rect x="3" y="16" width="1" height="1" rx="0.5" fill="black"/>
<rect x="9" y="17" width="1" height="1" rx="0.5" fill="black"/>
<rect x="6" y="17" width="1" height="1" rx="0.5" fill="black"/>
<rect x="8" y="18" width="1" height="1" rx="0.5" fill="black"/>
<rect x="6" y="18" width="1" height="1" rx="0.5" fill="black"/>
<rect x="3" y="18" width="1" height="1" rx="0.5" fill="black"/>
<rect x="9" y="19" width="1" height="1" rx="0.5" fill="black"/>
<rect x="7" y="19" width="1" height="1" rx="0.5" fill="black"/>
<rect x="6" y="19" width="1" height="1" rx="0.5" fill="black"/>
<rect x="4" y="19" width="1" height="1" rx="0.5" fill="black"/>
<rect x="3" y="19" width="1" height="1" rx="0.5" fill="black"/>
<rect x="2" y="19" width="1" height="1" rx="0.5" fill="black"/>
<rect x="9" y="20" width="1" height="1" rx="0.5" fill="black"/>
<rect x="8" y="20" width="1" height="1" rx="0.5" fill="black"/>
<rect x="7" y="20" width="1" height="1" rx="0.5" fill="black"/>
<rect x="5" y="20" width="1" height="1" rx="0.5" fill="black"/>
<rect x="4" y="20" width="1" height="1" rx="0.5" fill="black"/>
<rect x="3" y="20" width="1" height="1" rx="0.5" fill="black"/>
<rect x="2" y="20" width="1" height="1" rx="0.5" fill="black"/>
<rect x="7" y="21" width="1" height="1" rx="0.5" fill="black"/>
<rect x="4" y="21" width="1" height="1" rx="0.5" fill="black"/>
<rect x="3" y="21" width="1" height="1" rx="0.5" fill="black"/>
<rect x="2" y="21" width="1" height="1" rx="0.5" fill="black"/>
<rect x="9" y="22" width="1" height="1" rx="0.5" fill="black"/>
<rect x="8" y="22" width="1" height="1" rx="0.5" fill="black"/>
<rect x="5" y="22" width="1" height="1" rx="0.5" fill="black"/>
<rect x="4" y="22" width="1" height="1" rx="0.5" fill="black"/>
<rect x="9" y="23" width="1" height="1" rx="0.5" fill="black"/>
<rect x="7" y="23" width="1" height="1" rx="0.5" fill="black"/>
<rect x="6" y="23" width="1" height="1" rx="0.5" fill="black"/>
<rect x="3" y="23" width="1" height="1" rx="0.5" fill="black"/>
<rect x="2" y="23" width="1" height="1" rx="0.5" fill="black"/>
<rect x="8" y="24" width="1" height="1" rx="0.5" fill="black"/>
<rect x="5" y="24" width="1" height="1" rx="0.5" fill="black"/>
<rect x="4" y="24" width="1" height="1" rx="0.5" fill="black"/>
<rect x="6" y="25" width="1" height="1" rx="0.5" fill="black"/>
<rect x="5" y="25" width="1" height="1" rx="0.5" fill="black"/>
<rect x="12" y="2" width="1" height="1" rx="0.5" fill="black"/>
<rect x="12" y="3" width="1" height="1" rx="0.5" fill="black"/>
<rect x="12" y="6" width="1" height="1" rx="0.5" fill="black"/>
<rect x="12" y="8" width="1" height="1" rx="0.5" fill="black"/>
<rect x="12" y="9" width="1" height="1" rx="0.5" fill="black"/>
<rect x="12" y="13" width="1" height="1" rx="0.5" fill="black"/>
<rect x="12" y="14" width="1" height="1" rx="0.5" fill="black"/>
<rect x="12" y="15" width="1" height="1" rx="0.5" fill="black"/>
<rect x="12" y="19" width="1" height="1" rx="0.5" fill="black"/>
<rect x="12" y="20" width="1" height="1" rx="0.5" fill="black"/>
<rect x="12" y="22" width="1" height="1" rx="0.5" fill="black"/>
<rect x="12" y="24" width="1" height="1" rx="0.5" fill="black"/>
<rect x="12" y="25" width="1" height="1" rx="0.5" fill="black"/>
<rect x="13" y="4" width="1" height="1" rx="0.5" fill="black"/>
<rect x="13" y="5" width="1" height="1" rx="0.5" fill="black"/>
<rect x="13" y="7" width="1" height="1" rx="0.5" fill="black"/>
<rect x="13" y="9" width="1" height="1" rx="0.5" fill="black"/>
<rect x="13" y="10" width="1" height="1" rx="0.5" fill="black"/>
<rect x="13" y="11" width="1" height="1" rx="0.5" fill="black"/>
<rect x="13" y="12" width="1" height="1" rx="0.5" fill="black"/>
<rect x="13" y="13" width="1" height="1" rx="0.5" fill="black"/>
<rect x="13" y="16" width="1" height="1" rx="0.5" fill="black"/>
<rect x="13" y="19" width="1" height="1" rx="0.5" fill="black"/>
<rect x="13" y="20" width="1" height="1" rx="0.5" fill="black"/>
<rect x="13" y="21" width="1" height="1" rx="0.5" fill="black"/>
<rect x="13" y="23" width="1" height="1" rx="0.5" fill="black"/>
<rect x="13" y="24" width="1" height="1" rx="0.5" fill="black"/>
<rect x="13" y="25" width="1" height="1" rx="0.5" fill="black"/>
<rect x="14" y="3" width="1" height="1" rx="0.5" fill="black"/>
<rect x="14" y="8" width="1" height="1" rx="0.5" fill="black"/>
<rect x="14" y="9" width="1" height="1" rx="0.5" fill="black"/>
<rect x="14" y="10" width="1" height="1" rx="0.5" fill="black"/>
<rect x="14" y="13" width="1" height="1" rx="0.5" fill="black"/>
<rect x="14" y="15" width="1" height="1" rx="0.5" fill="black"/>
<rect x="14" y="16" width="1" height="1" rx="0.5" fill="black"/>
<rect x="14" y="19" width="1" height="1" rx="0.5" fill="black"/>
<rect x="14" y="23" width="1" height="1" rx="0.5" fill="black"/>
<rect x="14" y="25" width="1" height="1" rx="0.5" fill="black"/>
<rect x="15" y="2" width="1" height="1" rx="0.5" fill="black"/>
<rect x="15" y="7" width="1" height="1" rx="0.5" fill="black"/>
<rect x="15" y="9" width="1" height="1" rx="0.5" fill="black"/>
<rect x="15" y="11" width="1" height="1" rx="0.5" fill="black"/>
<rect x="15" y="14" width="1" height="1" rx="0.5" fill="black"/>
<rect x="15" y="15" width="1" height="1" rx="0.5" fill="black"/>
<rect x="15" y="23" width="1" height="1" rx="0.5" fill="black"/>
<rect x="15" y="24" width="1" height="1" rx="0.5" fill="black"/>
<rect x="16" y="2" width="1" height="1" rx="0.5" fill="black"/>
<rect x="16" y="4" width="1" height="1" rx="0.5" fill="black"/>
<rect x="16" y="8" width="1" height="1" rx="0.5" fill="black"/>
<rect x="16" y="10" width="1" height="1" rx="0.5" fill="black"/>
<rect x="16" y="12" width="1" height="1" rx="0.5" fill="black"/>
<rect x="16" y="14" width="1" height="1" rx="0.5" fill="black"/>
<rect x="16" y="15" width="1" height="1" rx="0.5" fill="black"/>
<rect x="16" y="18" width="1" height="1" rx="0.5" fill="black"/>
<rect x="16" y="20" width="1" height="1" rx="0.5" fill="black"/>
<rect x="16" y="21" width="1" height="1" rx="0.5" fill="black"/>
<rect x="16" y="23" width="1" height="1" rx="0.5" fill="black"/>
<rect x="17" y="3" width="1" height="1" rx="0.5" fill="black"/>
<rect x="17" y="4" width="1" height="1" rx="0.5" fill="black"/>
<rect x="17" y="5" width="1" height="1" rx="0.5" fill="black"/>
<rect x="17" y="6" width="1" height="1" rx="0.5" fill="black"/>
<rect x="17" y="9" width="1" height="1" rx="0.5" fill="black"/>
<rect x="17" y="10" width="1" height="1" rx="0.5" fill="black"/>
<rect x="17" y="13" width="1" height="1" rx="0.5" fill="black"/>
<rect x="17" y="17" width="1" height="1" rx="0.5" fill="black"/>
<rect x="17" y="19" width="1" height="1" rx="0.5" fill="black"/>
<rect x="17" y="20" width="1" height="1" rx="0.5" fill="black"/>
<rect x="17" y="23" width="1" height="1" rx="0.5" fill="black"/>
<rect x="18" y="2" width="1" height="1" rx="0.5" fill="black"/>
<rect x="18" y="3" width="1" height="1" rx="0.5" fill="black"/>
<rect x="18" y="5" width="1" height="1" rx="0.5" fill="black"/>
<rect x="18" y="6" width="1" height="1" rx="0.5" fill="black"/>
<rect x="18" y="8" width="1" height="1" rx="0.5" fill="black"/>
<rect x="18" y="9" width="1" height="1" rx="0.5" fill="black"/>
<rect x="18" y="12" width="1" height="1" rx="0.5" fill="black"/>
<rect x="18" y="13" width="1" height="1" rx="0.5" fill="black"/>
<rect x="18" y="15" width="1" height="1" rx="0.5" fill="black"/>
<rect x="18" y="16" width="1" height="1" rx="0.5" fill="black"/>
<rect x="18" y="17" width="1" height="1" rx="0.5" fill="black"/>
<rect x="18" y="18" width="1" height="1" rx="0.5" fill="black"/>
<rect x="18" y="25" width="1" height="1" rx="0.5" fill="black"/>
<rect x="19" y="3" width="1" height="1" rx="0.5" fill="black"/>
<rect x="19" y="6" width="1" height="1" rx="0.5" fill="black"/>
<rect x="19" y="11" width="1" height="1" rx="0.5" fill="black"/>
<rect x="19" y="12" width="1" height="1" rx="0.5" fill="black"/>
<rect x="19" y="13" width="1" height="1" rx="0.5" fill="black"/>
<rect x="19" y="14" width="1" height="1" rx="0.5" fill="black"/>
<rect x="19" y="15" width="1" height="1" rx="0.5" fill="black"/>
<rect x="19" y="16" width="1" height="1" rx="0.5" fill="black"/>
<rect x="19" y="20" width="1" height="1" rx="0.5" fill="black"/>
<rect x="19" y="21" width="1" height="1" rx="0.5" fill="black"/>
<rect x="19" y="25" width="1" height="1" rx="0.5" fill="black"/>
<rect x="20" y="5" width="1" height="1" rx="0.5" fill="black"/>
<rect x="20" y="6" width="1" height="1" rx="0.5" fill="black"/>
<rect x="20" y="8" width="1" height="1" rx="0.5" fill="black"/>
<rect x="20" y="10" width="1" height="1" rx="0.5" fill="black"/>
<rect x="20" y="14" width="1" height="1" rx="0.5" fill="black"/>
<rect x="20" y="18" width="1" height="1" rx="0.5" fill="black"/>
<rect x="20" y="20" width="1" height="1" rx="0.5" fill="black"/>
<rect x="20" y="23" width="1" height="1" rx="0.5" fill="black"/>
<rect x="20" y="24" width="1" height="1" rx="0.5" fill="black"/>
<rect x="21" y="2" width="1" height="1" rx="0.5" fill="black"/>
<rect x="21" y="3" width="1" height="1" rx="0.5" fill="black"/>
<rect x="21" y="5" width="1" height="1" rx="0.5" fill="black"/>
<rect x="21" y="6" width="1" height="1" rx="0.5" fill="black"/>
<rect x="21" y="7" width="1" height="1" rx="0.5" fill="black"/>
<rect x="21" y="9" width="1" height="1" rx="0.5" fill="black"/>
<rect x="21" y="10" width="1" height="1" rx="0.5" fill="black"/>
<rect x="21" y="12" width="1" height="1" rx="0.5" fill="black"/>
<rect x="21" y="16" width="1" height="1" rx="0.5" fill="black"/>
<rect x="21" y="21" width="1" height="1" rx="0.5" fill="black"/>
<rect x="21" y="22" width="1" height="1" rx="0.5" fill="black"/>
<rect x="21" y="23" width="1" height="1" rx="0.5" fill="black"/>
<rect x="21" y="25" width="1" height="1" rx="0.5" fill="black"/>
<rect x="22" y="2" width="1" height="1" rx="0.5" fill="black"/>
<rect x="22" y="3" width="1" height="1" rx="0.5" fill="black"/>
<rect x="22" y="6" width="1" height="1" rx="0.5" fill="black"/>
<rect x="22" y="7" width="1" height="1" rx="0.5" fill="black"/>
<rect x="22" y="8" width="1" height="1" rx="0.5" fill="black"/>
<rect x="22" y="9" width="1" height="1" rx="0.5" fill="black"/>
<rect x="22" y="10" width="1" height="1" rx="0.5" fill="black"/>
<rect x="22" y="12" width="1" height="1" rx="0.5" fill="black"/>
<rect x="22" y="18" width="1" height="1" rx="0.5" fill="black"/>
<rect x="22" y="22" width="1" height="1" rx="0.5" fill="black"/>
<rect x="22" y="24" width="1" height="1" rx="0.5" fill="black"/>
<rect x="22" y="25" width="1" height="1" rx="0.5" fill="black"/>
<rect x="23" y="3" width="1" height="1" rx="0.5" fill="black"/>
<rect x="23" y="4" width="1" height="1" rx="0.5" fill="black"/>
<rect x="23" y="6" width="1" height="1" rx="0.5" fill="black"/>
<rect x="23" y="7" width="1" height="1" rx="0.5" fill="black"/>
<rect x="23" y="9" width="1" height="1" rx="0.5" fill="black"/>
<rect x="23" y="10" width="1" height="1" rx="0.5" fill="black"/>
<rect x="23" y="12" width="1" height="1" rx="0.5" fill="black"/>
<rect x="23" y="13" width="1" height="1" rx="0.5" fill="black"/>
<rect x="23" y="15" width="1" height="1" rx="0.5" fill="black"/>
<rect x="23" y="17" width="1" height="1" rx="0.5" fill="black"/>
<rect x="23" y="18" width="1" height="1" rx="0.5" fill="black"/>
<rect x="23" y="21" width="1" height="1" rx="0.5" fill="black"/>
<rect x="23" y="22" width="1" height="1" rx="0.5" fill="black"/>
<rect x="23" y="25" width="1" height="1" rx="0.5" fill="black"/>
<rect x="24" y="3" width="1" height="1" rx="0.5" fill="black"/>
<rect x="24" y="7" width="1" height="1" rx="0.5" fill="black"/>
<rect x="24" y="8" width="1" height="1" rx="0.5" fill="black"/>
<rect x="24" y="10" width="1" height="1" rx="0.5" fill="black"/>
<rect x="24" y="12" width="1" height="1" rx="0.5" fill="black"/>
<rect x="24" y="15" width="1" height="1" rx="0.5" fill="black"/>
<rect x="24" y="20" width="1" height="1" rx="0.5" fill="black"/>
<rect x="24" y="21" width="1" height="1" rx="0.5" fill="black"/>
<rect x="24" y="22" width="1" height="1" rx="0.5" fill="black"/>
<rect x="24" y="23" width="1" height="1" rx="0.5" fill="black"/>
<rect x="24" y="24" width="1" height="1" rx="0.5" fill="black"/>
<rect x="24" y="25" width="1" height="1" rx="0.5" fill="black"/>
<rect x="25" y="2" width="1" height="1" rx="0.5" fill="black"/>
<rect x="25" y="7" width="1" height="1" rx="0.5" fill="black"/>
<rect x="25" y="10" width="1" height="1" rx="0.5" fill="black"/>
<rect x="25" y="11" width="1" height="1" rx="0.5" fill="black"/>
<rect x="25" y="12" width="1" height="1" rx="0.5" fill="black"/>
<rect x="25" y="13" width="1" height="1" rx="0.5" fill="black"/>
<rect x="25" y="15" width="1" height="1" rx="0.5" fill="black"/>
<rect x="25" y="16" width="1" height="1" rx="0.5" fill="black"/>
<rect x="25" y="17" width="1" height="1" rx="0.5" fill="black"/>
<rect x="25" y="18" width="1" height="1" rx="0.5" fill="black"/>
<rect x="25" y="19" width="1" height="1" rx="0.5" fill="black"/>
<rect x="25" y="20" width="1" height="1" rx="0.5" fill="black"/>
<rect x="25" y="24" width="1" height="1" rx="0.5" fill="black"/>
<rect x="25" y="25" width="1" height="1" rx="0.5" fill="black"/>
<rect x="26" y="2" width="1" height="1" rx="0.5" fill="black"/>
<rect x="26" y="3" width="1" height="1" rx="0.5" fill="black"/>
<rect x="26" y="7" width="1" height="1" rx="0.5" fill="black"/>
<rect x="26" y="8" width="1" height="1" rx="0.5" fill="black"/>
<rect x="26" y="9" width="1" height="1" rx="0.5" fill="black"/>
<rect x="26" y="10" width="1" height="1" rx="0.5" fill="black"/>
<rect x="26" y="13" width="1" height="1" rx="0.5" fill="black"/>
<rect x="26" y="14" width="1" height="1" rx="0.5" fill="black"/>
<rect x="26" y="17" width="1" height="1" rx="0.5" fill="black"/>
<rect x="26" y="19" width="1" height="1" rx="0.5" fill="black"/>
<rect x="26" y="20" width="1" height="1" rx="0.5" fill="black"/>
<rect x="26" y="23" width="1" height="1" rx="0.5" fill="black"/>
<rect x="26" y="24" width="1" height="1" rx="0.5" fill="black"/>
<rect x="28" y="10" width="1" height="1" rx="0.5" fill="black"/>
<rect x="29" y="10" width="1" height="1" rx="0.5" fill="black"/>
<rect x="33" y="10" width="1" height="1" rx="0.5" fill="black"/>
<rect x="29" y="11" width="1" height="1" rx="0.5" fill="black"/>
<rect x="31" y="11" width="1" height="1" rx="0.5" fill="black"/>
<rect x="33" y="11" width="1" height="1" rx="0.5" fill="black"/>
<rect x="28" y="12" width="1" height="1" rx="0.5" fill="black"/>
<rect x="29" y="12" width="1" height="1" rx="0.5" fill="black"/>
<rect x="30" y="12" width="1" height="1" rx="0.5" fill="black"/>
<rect x="32" y="12" width="1" height="1" rx="0.5" fill="black"/>
<rect x="33" y="12" width="1" height="1" rx="0.5" fill="black"/>
<rect x="30" y="13" width="1" height="1" rx="0.5" fill="black"/>
<rect x="27" y="14" width="1" height="1" rx="0.5" fill="black"/>
<rect x="28" y="14" width="1" height="1" rx="0.5" fill="black"/>
<rect x="29" y="14" width="1" height="1" rx="0.5" fill="black"/>
<rect x="32" y="14" width="1" height="1" rx="0.5" fill="black"/>
<rect x="34" y="14" width="1" height="1" rx="0.5" fill="black"/>
<rect x="27" y="15" width="1" height="1" rx="0.5" fill="black"/>
<rect x="32" y="15" width="1" height="1" rx="0.5" fill="black"/>
<rect x="33" y="15" width="1" height="1" rx="0.5" fill="black"/>
<rect x="27" y="16" width="1" height="1" rx="0.5" fill="black"/>
<rect x="28" y="16" width="1" height="1" rx="0.5" fill="black"/>
<rect x="30" y="16" width="1" height="1" rx="0.5" fill="black"/>
<rect x="33" y="16" width="1" height="1" rx="0.5" fill="black"/>
<rect x="29" y="17" width="1" height="1" rx="0.5" fill="black"/>
<rect x="30" y="17" width="1" height="1" rx="0.5" fill="black"/>
<rect x="31" y="17" width="1" height="1" rx="0.5" fill="black"/>
<rect x="33" y="17" width="1" height="1" rx="0.5" fill="black"/>
<rect x="28" y="18" width="1" height="1" rx="0.5" fill="black"/>
<rect x="30" y="18" width="1" height="1" rx="0.5" fill="black"/>
<rect x="31" y="18" width="1" height="1" rx="0.5" fill="black"/>
<rect x="32" y="18" width="1" height="1" rx="0.5" fill="black"/>
<rect x="33" y="18" width="1" height="1" rx="0.5" fill="black"/>
<rect x="29" y="19" width="1" height="1" rx="0.5" fill="black"/>
<rect x="33" y="19" width="1" height="1" rx="0.5" fill="black"/>
<rect x="34" y="19" width="1" height="1" rx="0.5" fill="black"/>
<rect x="27" y="20" width="1" height="1" rx="0.5" fill="black"/>
<rect x="28" y="20" width="1" height="1" rx="0.5" fill="black"/>
<rect x="30" y="20" width="1" height="1" rx="0.5" fill="black"/>
<rect x="31" y="20" width="1" height="1" rx="0.5" fill="black"/>
<rect x="33" y="20" width="1" height="1" rx="0.5" fill="black"/>
<rect x="34" y="20" width="1" height="1" rx="0.5" fill="black"/>
<rect x="28" y="21" width="1" height="1" rx="0.5" fill="black"/>
<rect x="30" y="21" width="1" height="1" rx="0.5" fill="black"/>
<rect x="34" y="21" width="1" height="1" rx="0.5" fill="black"/>
<rect x="30" y="22" width="1" height="1" rx="0.5" fill="black"/>
<rect x="31" y="22" width="1" height="1" rx="0.5" fill="black"/>
<rect x="27" y="23" width="1" height="1" rx="0.5" fill="black"/>
<rect x="28" y="23" width="1" height="1" rx="0.5" fill="black"/>
<rect x="29" y="23" width="1" height="1" rx="0.5" fill="black"/>
<rect x="31" y="23" width="1" height="1" rx="0.5" fill="black"/>
<rect x="32" y="23" width="1" height="1" rx="0.5" fill="black"/>
<rect x="33" y="23" width="1" height="1" rx="0.5" fill="black"/>
<rect x="29" y="25" width="1" height="1" rx="0.5" fill="black"/>
<rect x="30" y="25" width="1" height="1" rx="0.5" fill="black"/>
<rect x="31" y="28" width="1" height="1" rx="0.5" fill="black"/>
<rect x="31" y="31" width="1" height="1" rx="0.5" fill="black"/>
<rect x="30" y="31" width="1" height="1" rx="0.5" fill="black"/>
<rect x="29" y="31" width="1" height="1" rx="0.5" fill="black"/>
<rect x="28" y="31" width="1" height="1" rx="0.5" fill="black"/>
<rect x="26" y="31" width="1" height="1" rx="0.5" fill="black"/>
<rect x="25" y="27" width="1" height="1" rx="0.5" fill="black"/>
<rect x="24" y="30" width="1" height="1" rx="0.5" fill="black"/>
<rect x="24" y="29" width="1" height="1" rx="0.5" fill="black"/>
<rect x="23" y="31" width="1" height="1" rx="0.5" fill="black"/>
<rect x="23" y="27" width="1" height="1" rx="0.5" fill="black"/>
<rect x="22" y="29" width="1" height="1" rx="0.5" fill="black"/>
<rect x="22" y="28" width="1" height="1" rx="0.5" fill="black"/>
<rect x="21" y="31" width="1" height="1" rx="0.5" fill="black"/>
<rect x="21" y="30" width="1" height="1" rx="0.5" fill="black"/>
<rect x="21" y="29" width="1" height="1" rx="0.5" fill="black"/>
<rect x="21" y="28" width="1" height="1" rx="0.5" fill="black"/>
<rect x="21" y="27" width="1" height="1" rx="0.5" fill="black"/>
<rect x="21" y="26" width="1" height="1" rx="0.5" fill="black"/>
<rect x="20" y="29" width="1" height="1" rx="0.5" fill="black"/>
<rect x="20" y="27" width="1" height="1" rx="0.5" fill="black"/>
<rect x="20" y="26" width="1" height="1" rx="0.5" fill="black"/>
<rect x="19" y="31" width="1" height="1" rx="0.5" fill="black"/>
<rect x="19" y="29" width="1" height="1" rx="0.5" fill="black"/>
<rect x="19" y="28" width="1" height="1" rx="0.5" fill="black"/>
<rect x="18" y="31" width="1" height="1" rx="0.5" fill="black"/>
<rect x="18" y="29" width="1" height="1" rx="0.5" fill="black"/>
<rect x="18" y="28" width="1" height="1" rx="0.5" fill="black"/>
<rect x="18" y="27" width="1" height="1" rx="0.5" fill="black"/>
<rect x="18" y="26" width="1" height="1" rx="0.5" fill="black"/>
<rect x="17" y="31" width="1" height="1" rx="0.5" fill="black"/>
<rect x="17" y="27" width="1" height="1" rx="0.5" fill="black"/>
<rect x="16" y="31" width="1" height="1" rx="0.5" fill="black"/>
<rect x="16" y="28" width="1" height="1" rx="0.5" fill="black"/>
<rect x="16" y="26" width="1" height="1" rx="0.5" fill="black"/>
<rect x="15" y="31" width="1" height="1" rx="0.5" fill="black"/>
<rect x="15" y="29" width="1" height="1" rx="0.5" fill="black"/>
<rect x="15" y="28" width="1" height="1" rx="0.5" fill="black"/>
<rect x="15" y="27" width="1" height="1" rx="0.5" fill="black"/>
<rect x="14" y="28" width="1" height="1" rx="0.5" fill="black"/>
<rect x="14" y="27" width="1" height="1" rx="0.5" fill="black"/>
<rect x="14" y="26" width="1" height="1" rx="0.5" fill="black"/>
<rect x="13" y="30" width="1" height="1" rx="0.5" fill="black"/>
<rect x="13" y="28" width="1" height="1" rx="0.5" fill="black"/>
<rect x="13" y="27" width="1" height="1" rx="0.5" fill="black"/>
<rect x="12" y="30" width="1" height="1" rx="0.5" fill="black"/>
<rect x="12" y="28" width="1" height="1" rx="0.5" fill="black"/>
<rect x="12" y="27" width="1" height="1" rx="0.5" fill="black"/>
<rect x="11" y="31" width="1" height="1" rx="0.5" fill="black"/>
<rect x="11" y="29" width="1" height="1" rx="0.5" fill="black"/>
<rect x="11" y="26" width="1" height="1" rx="0.5" fill="black"/>
<rect x="10" y="30" width="1" height="1" rx="0.5" fill="black"/>
<rect x="10" y="29" width="1" height="1" rx="0.5" fill="black"/>
<rect x="10" y="28" width="1" height="1" rx="0.5" fill="black"/>
<rect x="10" y="27" width="1" height="1" rx="0.5" fill="black"/>
<rect x="8" y="26" width="1" height="1" rx="0.5" fill="black"/>
<rect x="7" y="26" width="1" height="1" rx="0.5" fill="black"/>
<rect x="6" y="26" width="1" height="1" rx="0.5" fill="black"/>
<rect x="4" y="26" width="1" height="1" rx="0.5" fill="black"/>
<rect x="3" y="26" width="1" height="1" rx="0.5" fill="black"/>
<rect x="2" y="26" width="1" height="1" rx="0.5" fill="black"/>
<rect x="31" y="32" width="1" height="1" rx="0.5" fill="black"/>
<rect x="30" y="32" width="1" height="1" rx="0.5" fill="black"/>
<rect x="28" y="32" width="1" height="1" rx="0.5" fill="black"/>
<rect x="27" y="32" width="1" height="1" rx="0.5" fill="black"/>
<rect x="23" y="32" width="1" height="1" rx="0.5" fill="black"/>
<rect x="20" y="32" width="1" height="1" rx="0.5" fill="black"/>
<rect x="16" y="32" width="1" height="1" rx="0.5" fill="black"/>
<rect x="13" y="32" width="1" height="1" rx="0.5" fill="black"/>
<rect x="12" y="32" width="1" height="1" rx="0.5" fill="black"/>
<rect x="11" y="32" width="1" height="1" rx="0.5" fill="black"/>
<rect x="30" y="33" width="1" height="1" rx="0.5" fill="black"/>
<rect x="29" y="33" width="1" height="1" rx="0.5" fill="black"/>
<rect x="28" y="33" width="1" height="1" rx="0.5" fill="black"/>
<rect x="27" y="33" width="1" height="1" rx="0.5" fill="black"/>
<rect x="26" y="33" width="1" height="1" rx="0.5" fill="black"/>
<rect x="25" y="33" width="1" height="1" rx="0.5" fill="black"/>
<rect x="24" y="33" width="1" height="1" rx="0.5" fill="black"/>
<rect x="23" y="33" width="1" height="1" rx="0.5" fill="black"/>
<rect x="20" y="33" width="1" height="1" rx="0.5" fill="black"/>
<rect x="19" y="33" width="1" height="1" rx="0.5" fill="black"/>
<rect x="16" y="33" width="1" height="1" rx="0.5" fill="black"/>
<rect x="15" y="33" width="1" height="1" rx="0.5" fill="black"/>
<rect x="14" y="33" width="1" height="1" rx="0.5" fill="black"/>
<rect x="13" y="33" width="1" height="1" rx="0.5" fill="black"/>
<rect x="12" y="33" width="1" height="1" rx="0.5" fill="black"/>
<rect x="29" y="34" width="1" height="1" rx="0.5" fill="black"/>
<rect x="27" y="34" width="1" height="1" rx="0.5" fill="black"/>
<rect x="26" y="34" width="1" height="1" rx="0.5" fill="black"/>
<rect x="25" y="34" width="1" height="1" rx="0.5" fill="black"/>
<rect x="21" y="34" width="1" height="1" rx="0.5" fill="black"/>
<rect x="20" y="34" width="1" height="1" rx="0.5" fill="black"/>
<rect x="19" y="34" width="1" height="1" rx="0.5" fill="black"/>
<rect x="17" y="34" width="1" height="1" rx="0.5" fill="black"/>
<rect x="16" y="34" width="1" height="1" rx="0.5" fill="black"/>
<rect x="15" y="34" width="1" height="1" rx="0.5" fill="black"/>
<rect x="14" y="34" width="1" height="1" rx="0.5" fill="black"/>
<rect x="12" y="34" width="1" height="1" rx="0.5" fill="black"/>
<rect x="11" y="34" width="1" height="1" rx="0.5" fill="black"/>
<rect x="32" y="27" width="1" height="1" rx="0.5" fill="black"/>
<rect x="32" y="30" width="1" height="1" rx="0.5" fill="black"/>
<rect x="32" y="32" width="1" height="1" rx="0.5" fill="black"/>
<rect x="32" y="33" width="1" height="1" rx="0.5" fill="black"/>
<rect x="32" y="34" width="1" height="1" rx="0.5" fill="black"/>
<rect x="33" y="28" width="1" height="1" rx="0.5" fill="black"/>
<rect x="33" y="29" width="1" height="1" rx="0.5" fill="black"/>
<rect x="34" y="26" width="1" height="1" rx="0.5" fill="black"/>
<rect x="34" y="29" width="1" height="1" rx="0.5" fill="black"/>
<rect x="34" y="31" width="1" height="1" rx="0.5" fill="black"/>
<rect x="34" y="34" width="1" height="1" rx="0.5" fill="black"/>
</mask>
<g mask="url(#mask0_1936_2283)">
<rect width="37" height="37" fill="url(#paint1_linear_1936_2283)"/>
<path d="M13.1222 24.8778C14.6264 26.3821 16.7046 27.3125 19 27.3125C22.7656 27.3125 25.9464 24.8086 26.9683 21.375M13.1222 24.8778C11.6179 23.3736 10.6875 21.2954 10.6875 19C10.6875 14.4091 14.4091 10.6875 19 10.6875C21.2954 10.6875 23.3736 11.6179 24.8778 13.1222L13.1222 24.8778Z" stroke="white" stroke-width="2.375"/>
</g>
<defs>
<linearGradient id="paint0_linear_1936_2283" x1="18.5" y1="0" x2="18.5" y2="37" gradientUnits="userSpaceOnUse">
<stop stop-color="#1EEBB0"/>
<stop offset="1" stop-color="#0391EC"/>
</linearGradient>
<linearGradient id="paint1_linear_1936_2283" x1="18.5" y1="0" x2="18.5" y2="37" gradientUnits="userSpaceOnUse">
<stop stop-color="#1EEBB0"/>
<stop offset="1" stop-color="#0391EC"/>
</linearGradient>
</defs>
</svg>
